<?xml version="1.0" encoding="utf-8"?>
<!-- Generator: Adobe Illustrator 23.0.4, SVG Export Plug-In . SVG Version: 6.00 Build 0)  -->
<svg version="1.1" id="Layer_1" xmlns="http://www.w3.org/2000/svg" xmlns:xlink="http://www.w3.org/1999/xlink" x="0px" y="0px"
	 viewBox="0 0 640 480" style="enable-background:new 0 0 640 480;" xml:space="preserve">
<style type="text/css">
	.st0{fill:#F15A24;}
	.st1{fill:#C61A1A;}
	.st2{fill:none;stroke:#000000;stroke-miterlimit:10;}
	.st3{fill:#FFFFFF;}
	.st4{fill:#9B0D17;}
	.st5{font-family:'Phosphate-Inline';}
	.st6{font-size:23.5754px;}
	.st7{fill:none;stroke:#9B0D17;stroke-width:8;stroke-miterlimit:10;}
	.st8{fill:#A80C0C;}
</style>
<g>
	<g>
		<g>
			<g id="XMLID_1_">
				<g>
					<path class="st0" d="M761.34,206.46c1.15,3.86,1.36,8.12-0.59,11.59c-1.12,2-2.81,3.53-4.66,4.91
						c2.57-3.59,4.23-7.86,4.89-12.23C761.2,209.31,761.31,207.88,761.34,206.46z"/>
					<path class="st0" d="M758.03,190.34c2.14,5.09,3.4,10.62,3.31,16.12c-0.14-0.48-0.29-0.96-0.47-1.43
						c-1.52-4.21-3.95-8.05-5.52-12.23c-1.71-4.54-2.38-9.36-3.14-14.17C754.12,182.54,756.34,186.32,758.03,190.34z"/>
					<path class="st1" d="M679.15,250.35c-1.15-1.05-2.08-2.35-2.99-3.62c-2.62-3.66-5.26-7.36-7.55-11.24
						c-1.39-6.02-1.12-12.45-0.82-18.69c0.18-3.76,0.39-7.61,1.93-11.04c3.41-7.6,12.12-10.96,18.58-16.21
						c9.35-7.59,14.12-19.55,16.25-31.4c0.23-1.28,0.43-2.57,0.59-3.85c0.52-4.12,0.62-8.3-0.16-12.37
						c-1.02-5.34-3.7-10.52-8.12-13.71c-0.16-0.12-0.33-0.24-0.49-0.35c-1.25-1.9-2.67-3.68-4.3-5.27
						c10.92,3.8,22.6,8.58,27.81,18.82c1.07,2.11,1.79,4.34,2.23,6.63c-0.05,0.57-0.1,1.14-0.17,1.7
						c-1.03,9.34-2.69,18.62-4.98,27.73c0,0.01,0,0.01-0.01,0.01c-2.05,5.28-4.18,10.53-5.52,16.03c-0.46,1.87-0.82,3.8-1,5.74
						c-0.78,3.12-1,6.3,0.6,8.86c0.18,0.63,0.39,1.25,0.63,1.87c0.17,0.41,0.37,0.85,0.78,1.04c0.66,0.3,1.38-0.21,1.9-0.7
						c2.61-2.48,4.7-5.31,6.48-8.37c1.75-2.24,3.17-4.8,4.28-7.38c2.67-6.22,4.11-12.98,7.36-18.92c1.98-3.62,4.67-7.05,6.08-10.85
						c0.57-0.91,1.08-1.86,1.44-2.88c0.86-2.39,0.78-5.33-0.96-7.18c2.6,1.11,4.74,2.9,6.47,5.09h0.01c0,0.01,0,0.02,0.01,0.02
						c1.9,4.68,2.9,9.69,4.73,14.39c0.59,1.5,1.25,2.95,1.96,4.39c0.76,4.8,1.43,9.62,3.14,14.17c1.58,4.19,4,8.02,5.52,12.23
						c0.17,0.47,0.33,0.94,0.47,1.43c-0.02,1.43-0.14,2.85-0.35,4.27c-0.66,4.37-2.32,8.64-4.89,12.23
						c-1.49,1.11-3.08,2.12-4.56,3.22c-2.32,1.73-4.43,3.72-6.29,5.94c-0.24,0.18-0.47,0.36-0.7,0.56
						c-3.76,3.24-5.84,8.66-4.26,13.36c1.28,3.79,4.66,6.45,8.5,7.75c3.57,1.6,7.55,2.17,11.46,2.69
						c-3.73,0.17-7.47,0.25-11.21,0.24c-0.01,0.01-0.03,0-0.04,0c-1.63-0.24-3.24-0.56-4.85-0.93h-0.01
						c-0.39-0.91-1.23-1.63-2.51-1.66c-7.33-0.2-20.84-10.59-15.9-18.78c0.47-0.77,0.52-1.52,0.32-2.17
						c1.08-3.4,2.16-6.8,3.24-10.21c3.05-5.1,6.65-9.88,9.59-15.05c0.74-1.3,1.41-3,0.5-4.19c-5.88,1.03-10.81,4.41-15.17,8.61
						c-2.85,2.74-5.46,5.84-7.94,8.86c-2.57,3.12-5.2,6.38-6.23,10.3c-0.63,2.4-0.6,4.92-0.44,7.41c-0.26,1.31-0.35,2.62-0.17,3.95
						c0.21,1.47,0.74,2.85,1.48,4.12c0.59,1.74,1.45,3.34,2.76,4.64c1.29,1.28,2.92,2.16,4.54,2.97c0.9,1.43,1.94,2.79,3.08,4.08
						c-9.89-1.78-19.82-3.3-29.86-3.55c-1.31-0.03-2.65-0.05-3.96-0.18h-0.01c-1.83-0.52-3.65-1.08-5.46-1.68
						c-1.16-0.71-2.21-1.6-3.21-2.55L679.15,250.35z"/>
					<path class="st0" d="M751.54,226.17c1.48-1.1,3.07-2.11,4.56-3.22c-1.46,2.05-3.22,3.88-5.26,5.38
						c-1.81,1.33-3.82,2.4-5.58,3.78C747.1,229.89,749.21,227.9,751.54,226.17z"/>
					<path class="st0" d="M750.92,171.75c0.53,2.27,0.92,4.57,1.29,6.88c-0.71-1.44-1.37-2.89-1.96-4.39
						c-1.83-4.7-2.84-9.71-4.73-14.39c-0.01-0.01-0.01-0.02-0.01-0.02c0.15,0.19,0.3,0.39,0.44,0.58c0.06,0.09,0.12,0.17,0.18,0.25
						C748.46,163.89,749.99,167.85,750.92,171.75z"/>
					<path class="st0" d="M749.01,256.71c-1.54,0-3.08-0.02-4.62-0.05c-0.04-0.3-0.11-0.6-0.24-0.87h0.01
						C745.76,256.15,747.38,256.47,749.01,256.71z"/>
					<path class="st0" d="M745.45,159.69c0.02,0.05,0.04,0.09,0.06,0.14c-1.73-2.19-3.87-3.98-6.47-5.09
						c1.74,1.85,1.82,4.79,0.96,7.18c-0.36,1.01-0.87,1.96-1.44,2.88c0.48-1.28,0.81-2.6,0.92-3.99c0.34-4.31-1.54-8.45-3.45-12.33
						c1.85,0.88,3.46,2.15,4.83,3.65c0,0.01,0,0.01,0.01,0.01c0.03,0.06,0.07,0.13,0.11,0.19
						C742.39,154.84,743.83,157.34,745.45,159.69z"/>
					<path class="st0" d="M729.3,222.95c-1.08,3.4-2.16,6.8-3.24,10.21c-0.18-0.59-0.58-1.09-1.08-1.47
						c0.97-2.61,2.22-5.14,3.61-7.54C728.82,223.75,729.05,223.35,729.3,222.95z"/>
					<path class="st0" d="M722.28,259.71c-11.74,0.03-23.49-1.59-34.79-4.79c1.31,0.13,2.65,0.15,3.96,0.18
						c10.04,0.25,19.97,1.77,29.86,3.55C721.63,259.02,721.96,259.37,722.28,259.71z"/>
					<path class="st0" d="M722.12,148.05c1.24,6.46,0.21,13.46-1.74,19.85c-0.99,3.24-2.19,6.42-3.41,9.58
						c2.29-9.12,3.95-18.39,4.98-27.73C722.01,149.19,722.07,148.62,722.12,148.05z"/>
					<path class="st0" d="M721.46,140.4c0.9,2.42,0.89,5.05,0.66,7.65c-0.44-2.29-1.16-4.51-2.23-6.63
						c-5.21-10.24-16.89-15.02-27.81-18.82c-0.42-0.42-0.86-0.83-1.31-1.22l0.16-0.82c9.68,1.92,18.81,6.63,25.92,13.49
						C718.74,135.88,720.54,137.92,721.46,140.4z"/>
					<path class="st0" d="M711.44,208.68c3.82-1.06,6.94-3.58,9.4-6.73c-1.78,3.06-3.86,5.9-6.48,8.37c-0.52,0.49-1.25,1.01-1.9,0.7
						c-0.4-0.19-0.61-0.63-0.78-1.04c-0.25-0.62-0.45-1.24-0.63-1.87C711.17,208.31,711.3,208.5,711.44,208.68z"/>
					<path class="st0" d="M710.45,199.26c-0.3,2.99-0.19,6,0.6,8.86C709.45,205.57,709.67,202.38,710.45,199.26z"/>
					<path class="st0" d="M704.98,141.93c0.78,4.07,0.67,8.25,0.16,12.37l-1.36-0.16c0.25-2.13,0.01-4.3-0.33-6.42
						c-1.09-6.98-3.24-14.02-7.08-19.86c0.17,0.12,0.33,0.24,0.49,0.35C701.28,131.41,703.96,136.59,704.98,141.93z"/>
					<path class="st0" d="M678.06,189.92c0,0,0.01-0.01,0.01-0.01c3.01-1.86,6.06-3.72,8.71-6.01c5.67-4.89,9.37-11.55,12.61-18.36
						c0.68-1.42,1.34-2.85,1.99-4.27c0.97-2.1,1.94-4.23,2.31-6.51c0.03-0.2,0.06-0.4,0.09-0.61l1.36,0.16
						c-0.16,1.29-0.36,2.58-0.59,3.85c-2.13,11.85-6.9,23.81-16.25,31.4c-6.46,5.25-15.17,8.61-18.58,16.21
						c-1.54,3.43-1.74,7.29-1.93,11.04c-0.3,6.23-0.57,12.66,0.82,18.69c-2.12-3.56-3.93-7.26-5.18-11.21
						c-2.61-8.24-2.34-17.87,2.81-24.81C669.29,195.36,673.65,192.64,678.06,189.92z"/>
					<path class="st0" d="M703.45,147.73c0.33,2.12,0.58,4.29,0.33,6.42c-0.02,0.21-0.05,0.41-0.09,0.61
						c-0.37,2.28-1.35,4.41-2.31,6.51c-0.65,1.42-1.31,2.85-1.99,4.27l-0.17-0.08c0.39-0.81,0.73-1.64,0.99-2.51
						c0.99-3.23,0.83-6.69,0.58-10.05c-0.49-6.72-1.34-13.54-4.09-19.69c-1.31-2.92-3.1-5.69-5.31-8l0.76-0.67
						c1.08,1.32,2.74,2.31,4.22,3.32C700.21,133.71,702.37,140.75,703.45,147.73z"/>
					<path class="st0" d="M699.23,165.46l0.17,0.08c-3.24,6.82-6.94,13.47-12.61,18.36c-2.66,2.29-5.7,4.15-8.71,6.01
						c7.32-5.8,13.73-12.77,18.88-20.57C697.77,168.1,698.57,166.81,699.23,165.46z"/>
					<path class="st0" d="M696.37,127.87c-1.48-1.02-3.14-2.01-4.22-3.32c-0.55-0.66-0.94-1.41-1.09-2.29
						c0.34,0.12,0.67,0.24,1.01,0.35C693.7,124.2,695.13,125.97,696.37,127.87z"/>
					<path class="st0" d="M692.15,124.55l-0.76,0.67c-1.33-1.39-2.81-2.61-4.42-3.61c-0.38-0.62-0.76-1.21-1.17-1.8
						c1.73,0.16,3.44,0.41,5.14,0.75l-0.16,0.82c0.45,0.39,0.89,0.8,1.31,1.22c-0.34-0.12-0.67-0.24-1.01-0.35
						C691.22,123.13,691.61,123.88,692.15,124.55z"/>
					<path class="st0" d="M678.82,250.7c1,0.95,2.05,1.84,3.21,2.55c-2.13-0.71-4.25-1.48-6.34-2.31c-1.66-3.63-4-6.94-5.55-10.62
						c-0.66-1.57-1.16-3.18-1.54-4.83c2.29,3.88,4.93,7.57,7.55,11.24c0.91,1.27,1.84,2.57,2.99,3.62L678.82,250.7z"/>
				</g>
				<g>
					<path class="st2" d="M687.49,254.92c-1.83-0.52-3.65-1.08-5.46-1.68c-2.13-0.71-4.25-1.48-6.34-2.31
						c-0.3-0.12-0.62-0.24-0.92-0.36"/>
					<path class="st2" d="M722.28,259.71c-11.74,0.03-23.49-1.59-34.79-4.79"/>
					<path class="st2" d="M729.3,222.95c1.76-5.56,3.53-11.12,5.29-16.67c-3.84,1.21-7.24,3.48-10.13,6.29
						c-1.32,1.28-2.53,2.67-3.63,4.12c-3.54,4.66-6.07,9.98-8.59,15.25c-1.06,2.23-2.14,4.56-2.62,6.95
						c-0.26,1.31-0.35,2.62-0.17,3.95c0.21,1.47,0.74,2.85,1.48,4.12c0.97,1.67,2.29,3.18,3.7,4.51c1.08,1.01,2.23,1.94,3.43,2.81"
						/>
					<path class="st2" d="M749.01,256.71c-1.54,0-3.08-0.02-4.62-0.05"/>
					<path class="st2" d="M746.14,160.66c2.32,3.23,3.85,7.19,4.78,11.09c0.53,2.27,0.92,4.57,1.29,6.88
						c0.76,4.8,1.43,9.62,3.14,14.17c1.58,4.19,4,8.02,5.52,12.23c0.17,0.47,0.33,0.94,0.47,1.43c1.15,3.86,1.36,8.12-0.59,11.59
						c-1.12,2-2.81,3.53-4.66,4.91c-1.49,1.11-3.08,2.12-4.56,3.22c-2.32,1.73-4.43,3.72-6.29,5.94c-0.63,0.75-1.23,1.52-1.79,2.32
						c-1.63,2.29-3.03,4.89-3.16,7.71c-0.21,4.51,3,8.64,6.94,10.85c0.51,0.29,1.04,0.55,1.57,0.79c3.57,1.6,7.55,2.17,11.46,2.69
						c-3.73,0.17-7.47,0.25-11.21,0.24"/>
					<path class="st2" d="M745.51,159.83c0.15,0.19,0.3,0.39,0.44,0.58"/>
					<path class="st2" d="M716.96,177.49c-2.05,5.28-4.18,10.53-5.52,16.03c-0.46,1.87-0.82,3.8-1,5.74c-0.3,2.99-0.19,6,0.6,8.86
						c0.18,0.63,0.39,1.25,0.63,1.87c0.17,0.41,0.37,0.85,0.78,1.04c0.66,0.3,1.38-0.21,1.9-0.7c2.61-2.48,4.7-5.31,6.48-8.37
						c6.03-10.39,8.42-23.35,15.25-33.51c0.82-1.21,1.7-2.4,2.47-3.65c0.57-0.91,1.08-1.86,1.44-2.88c0.86-2.39,0.78-5.33-0.96-7.18
						c2.6,1.11,4.74,2.9,6.47,5.09"/>
					<path class="st2" d="M676,251.65c-0.1-0.24-0.21-0.48-0.31-0.71c-1.66-3.63-4-6.94-5.55-10.62c-0.66-1.57-1.16-3.18-1.54-4.83
						c-1.39-6.02-1.12-12.45-0.82-18.69c0.18-3.76,0.39-7.61,1.93-11.04c3.41-7.6,12.12-10.96,18.58-16.21
						c9.35-7.59,14.12-19.55,16.25-31.4c0.23-1.28,0.43-2.57,0.59-3.85c0.52-4.12,0.62-8.3-0.16-12.37
						c-1.02-5.34-3.7-10.52-8.12-13.71c-0.16-0.12-0.33-0.24-0.49-0.35c-1.48-1.02-3.14-2.01-4.22-3.32
						c-0.55-0.66-0.94-1.41-1.09-2.29c0.34,0.12,0.67,0.24,1.01,0.35c10.92,3.8,22.6,8.58,27.81,18.82
						c1.07,2.11,1.79,4.34,2.23,6.63c1.24,6.46,0.21,13.46-1.74,19.85c-0.99,3.24-2.19,6.42-3.41,9.58"/>
					<path class="st2" d="M678.06,189.92c-4.41,2.71-8.77,5.44-11.82,9.55c-5.15,6.94-5.42,16.57-2.81,24.81
						c1.25,3.95,3.07,7.65,5.18,11.21c2.29,3.88,4.93,7.57,7.55,11.24c0.91,1.27,1.84,2.57,2.99,3.62c0.17,0.15,0.34,0.3,0.51,0.44
						c4.04,3.24,9.81,2.81,14.95,2.21"/>
					<path class="st2" d="M690.77,121.38c0.45,0.39,0.89,0.8,1.31,1.22c1.62,1.59,3.05,3.36,4.3,5.27
						c3.84,5.84,5.99,12.88,7.08,19.86c0.33,2.12,0.58,4.29,0.33,6.42c-0.02,0.21-0.05,0.41-0.09,0.61
						c-0.37,2.28-1.35,4.41-2.31,6.51c-0.65,1.42-1.31,2.85-1.99,4.27c-3.24,6.82-6.94,13.47-12.61,18.36
						c-2.66,2.29-5.7,4.15-8.71,6.01"/>
					<path class="st2" d="M744.15,255.78c1.61,0.37,3.23,0.68,4.85,0.93c0.01,0,0.03,0.01,0.04,0c2.54,0.38,5.11,0.58,7.69,0.54
						c4.47-0.06,9.36-1.08,12.16-4.57"/>
					<path class="st2" d="M718.23,254.57c-1.63-0.82-3.26-1.69-4.54-2.97c-1.31-1.3-2.17-2.89-2.76-4.64
						c-0.75-2.21-1.05-4.66-1.24-7.01c-0.03-0.36-0.06-0.71-0.08-1.07c-0.16-2.49-0.18-5,0.44-7.41c1.02-3.92,3.66-7.18,6.23-10.3
						c2.48-3.01,5.08-6.11,7.94-8.86c4.36-4.2,9.28-7.58,15.17-8.61c0.91,1.18,0.24,2.89-0.5,4.19c-2.94,5.18-6.53,9.95-9.59,15.05
						c-0.24,0.4-0.48,0.8-0.71,1.2c-1.39,2.4-2.63,4.93-3.61,7.54"/>
					<path class="st2" d="M673.85,245.07c0.94,1.69,2.34,3.07,3.72,4.42c0.41,0.4,0.83,0.81,1.25,1.2c1,0.95,2.05,1.84,3.21,2.55
						c0.47,0.29,0.96,0.55,1.47,0.76c1.27,0.53,2.61,0.79,3.99,0.92h0.01c1.31,0.13,2.65,0.15,3.96,0.18
						c10.04,0.25,19.97,1.77,29.86,3.55"/>
					<path class="st2" d="M686.97,121.61c1.61,0.99,3.09,2.22,4.42,3.61c2.21,2.31,4.01,5.08,5.31,8
						c2.75,6.15,3.61,12.96,4.09,19.69c0.25,3.36,0.41,6.82-0.58,10.05c-0.26,0.86-0.6,1.7-0.99,2.51
						c-0.66,1.35-1.46,2.63-2.28,3.89c-5.15,7.79-11.55,14.76-18.88,20.57c-0.01,0-0.01,0.01-0.01,0.01
						c-2.25,1.79-4.6,3.47-7.02,5.03"/>
					<path class="st2" d="M740.87,152.14c-1.37-1.51-2.98-2.77-4.83-3.65c1.91,3.88,3.78,8.02,3.45,12.33
						c-0.11,1.39-0.44,2.71-0.92,3.99c-1.41,3.8-4.09,7.23-6.08,10.85c-3.26,5.95-4.69,12.7-7.36,18.92
						c-1.11,2.58-2.53,5.14-4.28,7.38c-2.46,3.15-5.57,5.67-9.4,6.73c-0.14-0.18-0.27-0.37-0.39-0.56c-1.6-2.55-1.38-5.74-0.6-8.86
						c0.34-1.39,0.8-2.77,1.25-4.08c2.02-5.81,3.78-11.72,5.27-17.69c0.01-0.01,0.01-0.01,0.01-0.01
						c2.29-9.12,3.95-18.39,4.98-27.73c0.06-0.56,0.12-1.13,0.17-1.7c0.23-2.6,0.24-5.23-0.66-7.65c-0.91-2.47-2.71-4.51-4.61-6.34
						c-7.1-6.87-16.24-11.57-25.92-13.49c-1.7-0.34-3.41-0.59-5.14-0.75"/>
					<path class="st2" d="M767.96,252.19c-5.03,1.51-10.24,2.96-15.46,2.4c-1.24-0.13-2.5-0.41-3.7-0.82
						c-3.84-1.3-7.22-3.96-8.5-7.75c-1.58-4.7,0.49-10.12,4.26-13.36c0.22-0.2,0.46-0.38,0.7-0.56c1.77-1.38,3.77-2.45,5.58-3.78
						c2.04-1.5,3.8-3.32,5.26-5.38c2.57-3.59,4.23-7.86,4.89-12.23c0.21-1.41,0.33-2.84,0.35-4.27c0.09-5.5-1.17-11.03-3.31-16.12
						c-1.69-4.02-3.91-7.8-5.82-11.71c-0.71-1.44-1.37-2.89-1.96-4.39c-1.83-4.7-2.84-9.71-4.73-14.39
						c-0.01-0.01-0.01-0.02-0.01-0.02h-0.01c-0.02-0.05-0.04-0.09-0.06-0.14"/>
					<path class="st2" d="M745.96,160.41c0.06,0.09,0.12,0.17,0.18,0.25"/>
					<path class="st2" d="M740.87,152.14c0,0.01,0,0.01,0.01,0.01"/>
				</g>
			</g>
		</g>
		<g>
			<g>
				<path class="st0" d="M696.67,137.99c7.07,15.68,0.34,31.99-12.09,42.63c-6.04,5.17-13.53,7.98-19.73,12.74
					c-5.36,4.11-7.85,12.99-8.35,19.41c-0.59,7.59,2.05,14.76,5.06,21.58c2.8,6.34,5.15,13.79,10.09,18.86
					c5.48,5.64,14.59,6.85,21.97,8.32c8.59,1.7,17.3,2.76,26,3.77c7.66,0.89,7.59-11.12,0-12c-8.26-0.96-16.52-2.01-24.66-3.72
					c-3.86-0.81-9.33-1.43-12.82-3.34c-2.44-1.33-3.69-3.82-4.92-6.2c-3.15-6.09-6.45-12.93-8.06-19.61
					c-1.45-6.02-0.91-14.76,4.67-18.35c12.21-7.86,24.17-14.77,31.56-27.87c7.61-13.49,7.99-28.24,1.66-42.28
					C703.86,124.91,693.51,131,696.67,137.99L696.67,137.99z"/>
			</g>
		</g>
		<g>
			<g>
				<path class="st0" d="M745.79,261.85c10.37-0.02,20.66-0.6,29.87-5.84c-2.02-3.45-4.04-6.91-6.06-10.36
					c-1.28,0.74-2.31,1.55-3.43,2.52c-5.11,4.44,1.6,13.21,7.27,9.42c0.77-0.48,1.51-1.01,2.21-1.58
					c4.94-3.77,2.44-13.27-4.62-10.97c-0.96,0.31-1.92,0.63-2.88,0.94c-7.31,2.38-4.18,13.97,3.19,11.57
					c0.96-0.31,1.92-0.63,2.88-0.94c-1.54-3.66-3.08-7.31-4.62-10.97c-0.7,0.57-1.44,1.1-2.21,1.58c2.42,3.14,4.85,6.28,7.27,9.42
					c0.33-0.21,0.67-0.43,1-0.64c6.68-3.88,0.67-14.19-6.06-10.36c-7.32,4.17-15.62,4.18-23.82,4.2
					C738.07,249.86,738.05,261.86,745.79,261.85L745.79,261.85z"/>
			</g>
		</g>
		<g>
			<g>
				<path class="st0" d="M719.84,249.52c-17.48-13.67,7.47-34.89,19.83-40.53c-2.42-3.14-4.85-6.28-7.27-9.42
					c0.21-0.21,1.2-0.69,0.58-0.51c1.95,3.34,3.89,6.69,5.84,10.03c-0.87,0.81-0.59,0.78,0.85-0.1c-2.94-2.26-5.88-4.52-8.81-6.78
					c-0.45,1.83-0.66,0.83,1.04-0.17c2.02,0,4.04,0,6.06,0c-0.15-0.07-0.31-0.15-0.46-0.22c0.92,1.2,1.84,2.39,2.76,3.59
					c-0.08-0.25-0.16-0.49-0.23-0.74c-0.2,1.54-0.4,3.08-0.6,4.62c-0.55,0.1-0.46,0,0.26-0.3c-2.94-2.26-5.88-4.52-8.81-6.78
					c-2.22,9.83-5.86,18.73-9.25,28.17c-2.62,7.28,8.97,10.41,11.57,3.19c3.4-9.43,7.04-18.34,9.25-28.17
					c1.14-5.08-4.12-9.4-8.81-6.78c-4.89,2.74-8.06,10.14-1.95,13.66c5.5,3.17,9.57-2.09,10.76-6.89c1.34-5.4-4.16-8.93-8.81-6.78
					c-1.25,0.58-2.27,1-3.28,1.97c-4.28,4.12,0.1,11.75,5.84,10.03c1.72-0.52,3.42-1.33,4.71-2.58c5.21-5.02-1.38-12.11-7.27-9.42
					c-11.7,5.34-23.63,15.2-28.68,27.29c-4.56,10.92-3.39,24.41,6.42,32.08C717.37,262.71,725.92,254.28,719.84,249.52
					L719.84,249.52z"/>
			</g>
		</g>
		<g>
			<g>
				<path class="st0" d="M769.47,244.47c-4.46,0.67-8.93,1.47-13.41,2.01c-3.74,0.45-8.42,1.8-8.38-3.11
					c0.04-4.05,2.57-6.4,5.4-8.86c3.02-2.63,5.71-5.37,7.74-8.86c9.08-15.63,0.48-31.79-5.28-46.9c-2.72-7.14-14.33-4.04-11.57,3.19
					c1.95,5.1,3.91,10.2,5.83,15.31c1.7,4.53,3.57,9.3,3.22,14.22c-0.32,4.44-2.3,8.71-5.42,11.88c-3.4,3.46-7.29,5.92-9.54,10.39
					c-3.47,6.88-3.78,18.3,3.64,22.85c8.47,5.2,21.88,0.84,30.97-0.53C780.27,254.89,777.04,243.33,769.47,244.47L769.47,244.47z"/>
			</g>
		</g>
		<g>
			<g>
				<path class="st0" d="M742.04,167.54c3.96,8.15,5.88,17.14,8.76,25.7c2.08,6.19,6.99,17.78,0.03,22.66
					c-6.28,4.4-0.29,14.8,6.06,10.36c9.85-6.89,10.66-18.66,7.65-29.49c-3.26-11.78-6.8-24.28-12.14-35.29
					C749.03,154.54,738.68,160.61,742.04,167.54L742.04,167.54z"/>
			</g>
		</g>
		<g>
			<g>
				<path class="st0" d="M731.59,152.54c1.35,1.65,2.69,3.31,4.01,4.99c0.88,1.13,2.89,1.76,4.24,1.76c1.47,0,3.23-0.65,4.24-1.76
					c1.05-1.14,1.83-2.64,1.76-4.24c-0.08-1.7-0.72-2.92-1.76-4.24c-1.31-1.68-2.66-3.34-4.01-4.99c-0.91-1.12-2.86-1.76-4.24-1.76
					c-1.47,0-3.23,0.65-4.24,1.76c-1.05,1.14-1.83,2.64-1.76,4.24C729.9,149.97,730.53,151.24,731.59,152.54L731.59,152.54z"/>
			</g>
		</g>
		<g>
			<g>
				<path class="st0" d="M730.59,152.93c2.42,5.71,3.62,10.57,1.52,16.56c-1.72,4.92-4.13,9.72-6.44,14.38
					c-4.38,8.86-9.61,17.67-17.81,23.51c-6.24,4.44-0.25,14.85,6.06,10.36c10.89-7.76,17.86-18.76,23.5-30.68
					c2.8-5.93,6.16-12.16,7.46-18.62c1.54-7.7-0.96-14.56-3.92-21.57c-1.27-3.01-5.65-3.61-8.21-2.15
					C729.63,146.49,729.33,149.96,730.59,152.93L730.59,152.93z"/>
			</g>
		</g>
		<g>
			<g>
				<path class="st0" d="M732.33,151.95c-1.59,9.63-3.68,19.16-6.38,28.55c-1.17,4.08-2.03,9.3-4.57,12.78
					c-2.29,3.14-5.51,5.23-7.5,8.69c-3.86,6.71,6.51,12.76,10.36,6.06c1.9-3.3,5.31-5.42,7.44-8.61c2.72-4.08,3.94-9.29,5.31-13.92
					c2.95-9.97,5.22-20.1,6.91-30.36C745.15,147.59,733.59,144.34,732.33,151.95L732.33,151.95z"/>
			</g>
		</g>
		<g>
			<g>
				<path class="st0" d="M735.41,200.27c-0.72,3.73-1.11,7.5-1.02,11.3c0.08,3.14,2.7,6.15,6,6c3.18-0.14,6.08-2.64,6-6
					c-0.07-2.91,0.08-5.47,0.59-8.11c0.59-3.07-0.86-6.62-4.19-7.38C739.83,195.4,736.04,196.97,735.41,200.27L735.41,200.27z"/>
			</g>
		</g>
		<g>
			<g>
				<path class="st0" d="M687.53,183.32c-9.66,5.55-19.6,11.95-23.84,22.77c-2.01,5.13-3.89,12.98-2.58,18.49
					c1.38,5.79,7.07,9.69,12.91,7.82c7.32-2.35,4.19-13.94-3.19-11.57c1.76,1.25,2.43,0.93,2.02-0.95c0.08-0.59,0.16-1.18,0.24-1.77
					c0.24-1.8,0.56-3.62,1.04-5.37c0.9-3.26,2.37-6.03,4.68-8.51c4.17-4.47,9.53-7.52,14.78-10.54
					C700.28,189.83,694.24,179.46,687.53,183.32L687.53,183.32z"/>
			</g>
		</g>
		<g>
			<g>
				<path class="st0" d="M686.73,127.05c11.13,8.32,11.61,25.87,6.31,37.53c-3.01,6.63-7.45,12.64-12.1,18.2
					c-4.62,5.52-11.36,7.63-16.15,12.62c-4.46,4.65,2.61,11.73,7.07,7.07c2.38-2.48,5.8-3.7,8.83-5.86
					c3.73-2.66,6.61-5.81,9.44-9.38c5.82-7.32,11.2-15.08,14.11-24.05c5.08-15.68,1.02-34.68-12.47-44.76
					C686.62,114.56,681.63,123.24,686.73,127.05L686.73,127.05z"/>
			</g>
		</g>
		<g>
			<g>
				<path class="st0" d="M688.44,126.56c4.77,2.35,10.03,6.04,10.17,11.89c3.11-0.84,6.21-1.68,9.32-2.52
					c-4.24-7.46-9.41-14.42-16.85-18.94c-5.52-3.35-10.55,5.3-5.05,8.63c5.97,3.63,9.87,9.39,13.26,15.35
					c2.42,4.26,9.44,2.45,9.32-2.52c-0.23-9.47-7.01-16.52-15.13-20.52C687.74,115.09,682.66,123.71,688.44,126.56L688.44,126.56z"
					/>
			</g>
		</g>
		<g>
			<g>
				<path class="st0" d="M686.77,125.29c7.51,2.25,15.32,4.86,21.45,9.94c8.23,6.82,10.17,16.1,7.55,26.23
					c-2.53,9.76-6.61,19.04-9.28,28.76c-2.25,8.2-5.71,18.84,2.62,24.53c5.33,3.64,10.33-5.02,5.05-8.63
					c-2.03-1.39,1.87-12.89,2.45-14.92c1.47-5.07,3.27-10.03,4.99-15.01c3.41-9.87,7.32-20.67,4.58-31.19
					c-4.44-17.02-21.39-24.76-36.75-29.36C683.25,113.8,680.61,123.45,686.77,125.29L686.77,125.29z"/>
			</g>
		</g>
		<g>
			<g>
				<path class="st0" d="M729.67,147.51c2.61,11.67-0.53,23.3-4.88,34.15c-2,4.99-4.04,10.29-6.73,14.95
					c-2.69,4.67-7.38,7.51-10.72,11.66c-4,4.97,3.03,12.08,7.07,7.07c3.71-4.61,8.74-7.81,11.85-12.95
					c3.37-5.56,5.76-12.04,8.17-18.07c5.06-12.62,7.89-25.98,4.88-39.46C737.91,138.58,728.26,141.23,729.67,147.51L729.67,147.51z"
					/>
			</g>
		</g>
		<g>
			<g>
				<path class="st0" d="M731.86,149.61c4.61,10.1,8.31,20.55,11.34,31.22c1.76,6.18,11.41,3.55,9.64-2.66
					c-3.27-11.52-7.38-22.72-12.35-33.61C737.83,138.72,729.21,143.79,731.86,149.61L731.86,149.61z"/>
			</g>
		</g>
		<g>
			<g>
				<path class="st0" d="M738.93,144.03c-0.35-1.18-0.83-2.32-1.35-3.43c-0.51-1.08-1.88-1.99-2.99-2.3
					c-1.2-0.33-2.79-0.18-3.85,0.5c-1.07,0.69-2.01,1.71-2.3,2.99c-0.06,0.44-0.12,0.89-0.18,1.33c0,0.9,0.23,1.74,0.68,2.52
					c0.1,0.22,0.2,0.45,0.3,0.67c-0.17-0.4-0.34-0.8-0.5-1.19c0.21,0.51,0.39,1.03,0.55,1.56c0.36,1.22,1.19,2.34,2.3,2.99
					c1.07,0.63,2.65,0.89,3.85,0.5c1.21-0.39,2.38-1.14,2.99-2.3C739.05,146.7,739.31,145.34,738.93,144.03L738.93,144.03z"/>
			</g>
		</g>
		<g>
			<g>
				<path class="st0" d="M735.5,137.49c-1.13-0.65-2.25-1.31-3.38-1.96c-3.59-2.08-7.82,3.01-4.54,5.89
					c15.31,13.44,23.57,32.97,22.52,53.32c-0.25,4.82,7.25,4.81,7.5,0c1.15-22.15-8.04-43.99-24.72-58.62
					c-1.51,1.96-3.03,3.93-4.54,5.89c1.13,0.65,2.25,1.31,3.38,1.96C735.9,146.4,739.68,139.92,735.5,137.49L735.5,137.49z"/>
			</g>
		</g>
		<g>
			<g>
				<path class="st0" d="M725.67,139.73c6.2,9.4,5.82,19.77,4.89,30.56c-0.41,4.81,7.09,4.78,7.5,0
					c1.04-12.14,1.02-23.83-5.92-34.34C729.5,131.94,723,135.69,725.67,139.73L725.67,139.73z"/>
			</g>
		</g>
		<g>
			<g>
				<path class="st0" d="M724.68,138.65c4.2,2.99,8.9,5.55,11.23,10.33c2.46,5.04,4.42,10.39,6.61,15.56
					c1.88,4.43,8.34,0.61,6.48-3.79c-2.49-5.88-4.45-12.7-7.95-18.06c-2.96-4.53-8.26-7.44-12.57-10.51
					C724.53,129.37,720.78,135.87,724.68,138.65L724.68,138.65z"/>
			</g>
		</g>
		<g>
			<g>
				<path class="st0" d="M723.07,136.63c4.83,6.5,8.06,12.11,8.08,20.47c0.02,7.84-0.64,15.67-1.68,23.44
					c-0.64,4.77,6.87,4.72,7.5,0c1.19-8.88,2.22-18.21,1.57-27.18c-0.59-8.05-4.28-14.17-9-20.51
					C726.7,129.01,720.19,132.75,723.07,136.63L723.07,136.63z"/>
			</g>
		</g>
		<g>
			<g>
				<path class="st0" d="M729.51,211.84c-2.14,6.65-4.57,13.28-6.41,20.02c-1.48,5.42-1.11,10.38,1.76,15.27
					c5.22,8.89,15.5,13.89,25.65,13.32c0-2.5,0-5,0-7.5c-5.25,0.53-12.04-2.56-14.96-6.99c-2.69-4.08-5.7-9.77-4.47-14.74
					c0.78-3.12-2.64-5.95-5.51-4.23c-8.4,5.03-0.52,20.31,3.81,25.81c7.49,9.52,18.79,8.04,29.62,6.77c4.74-0.55,4.79-8.06,0-7.5
					c-6.21,0.73-15.17,2.78-20.7-0.93c-3.03-2.03-4.95-5.52-6.3-8.79c-0.35-0.86-3.32-8.47-2.64-8.88
					c-1.84-1.41-3.67-2.82-5.51-4.23c-3.71,14.89,11.24,32.78,26.66,31.23c4.71-0.47,4.89-7.77,0-7.5
					c-7.88,0.44-16.45-3.34-19.87-10.88c-2.11-4.64-0.01-9.18,1.43-13.69c1.56-4.85,3.12-9.71,4.67-14.56
					C738.22,209.23,730.98,207.25,729.51,211.84L729.51,211.84z"/>
			</g>
		</g>
		<g>
			<g>
				<path class="st0" d="M773.12,253.64c2.17-0.43,4.3-0.96,6.42-1.6c-0.66-2.41-1.33-4.82-1.99-7.23
					c-1.77,0.74-3.14,1.71-4.57,2.98c-1.05,0.94-1.72,1.35-3.22,1.17c-2.01-0.24-3.75,1.9-3.75,3.75c0,2.23,1.73,3.51,3.75,3.75
					c2.16,0.26,4.44-0.29,6.24-1.51c1.15-0.78,2.28-2.39,3.54-2.91c1.87-0.78,3.2-2.48,2.62-4.61c-0.53-1.92-2.67-3.21-4.61-2.62
					c-2.12,0.64-4.25,1.17-6.42,1.6c-1.99,0.39-3.13,2.76-2.62,4.61C769.08,253.1,771.13,254.03,773.12,253.64L773.12,253.64z"/>
			</g>
		</g>
		<g>
			<g>
				<path class="st0" d="M775.39,244.9c-4,0.51-7.42,1.47-11.31,2.47c-4.95,1.27-10.11,1.14-15.18,1.07c-4.83-0.06-4.83,7.44,0,7.5
					c4.56,0.06,9.13,0.08,13.65-0.64c4.4-0.7,8.42-2.35,12.84-2.91C780.11,251.8,780.17,244.3,775.39,244.9L775.39,244.9z"/>
			</g>
		</g>
		<g>
			<g>
				<path class="st0" d="M708.75,252.61c6.38,7.56,14.41,14.62,24.9,13.09c-0.66-2.41-1.33-4.82-1.99-7.23
					c-2.26,0.81-6.43-3.46-8.13-4.66c-2.84-2.01-5.68-4.03-8.53-6.04c-2.61-1.85-6.58,1.24-5.51,4.23
					c3.87,10.8,13.92,16.46,25.19,14.33c4.18-0.79,3.18-7.47-1-7.37c-14.18,0.37-26.77-6.2-38.75-13.06
					c-4.2-2.4-7.98,4.08-3.79,6.48c13.13,7.51,27.03,14.48,42.54,14.08c-0.33-2.46-0.66-4.91-1-7.37
					c-7.04,1.32-13.55-2.36-15.96-9.1c-1.84,1.41-3.67,2.82-5.51,4.23c4.13,2.93,8.23,5.91,12.4,8.79
					c3.18,2.19,6.14,4.06,10.04,2.67c4.63-1.65,2.72-7.92-1.99-7.23c-7.16,1.04-13.44-6.24-17.6-11.16
					C710.94,243.61,705.65,248.94,708.75,252.61L708.75,252.61z"/>
			</g>
		</g>
		<g>
			<g>
				<path class="st0" d="M768.84,254.67c3.73-1.09,7.46-2.17,11.2-3.26c-1.22-2.09-2.43-4.18-3.65-6.27
					c-3.27,2.64-6.7,5.3-11.11,5.11c-4.83-0.21-4.82,7.29,0,7.5c6.5,0.29,11.59-3.42,16.41-7.31c3-2.42-0.25-7.26-3.65-6.27
					c-3.73,1.09-7.46,2.17-11.2,3.26C762.22,248.78,764.19,256.02,768.84,254.67L768.84,254.67z"/>
			</g>
		</g>
		<g>
			<g>
				<path class="st0" d="M679.41,119.86c7.26,3.86,13.53,9.13,18.36,15.81c2.8,3.87,9.31,0.14,6.48-3.79
					c-5.59-7.73-12.61-14.02-21.05-18.5C678.94,111.12,675.14,117.59,679.41,119.86L679.41,119.86z"/>
			</g>
		</g>
		<g>
			<g>
				<path class="st0" d="M678.26,118.12c4.23,5.79,11.24,8.93,14.52,15.43c3.87,7.66,6.37,17.2,4.93,25.76
					c-0.79,4.72,6.43,6.75,7.23,1.99c1.59-9.46-0.34-18.57-3.87-27.39c-1.53-3.83-3.34-7.41-6.27-10.37
					c-3.2-3.24-7.35-5.48-10.06-9.2C681.92,110.48,675.4,114.21,678.26,118.12L678.26,118.12z"/>
			</g>
		</g>
		<g>
			<g>
				<path class="st0" d="M691.76,117.26c-2.99-2.7-6.19-4.52-10.08-5.6c-4.76-1.33-6.37,5.49-1.99,7.23
					c5.2,2.08,10.53,4.24,15.05,7.62c4.57,3.42,6.71,8.4,10.36,12.61c3.17,3.65,8.46-1.67,5.3-5.3c-4.26-4.9-6.59-10.04-12.09-13.95
					c-5.06-3.6-10.89-5.92-16.63-8.2c-0.66,2.41-1.33,4.82-1.99,7.23c2.65,0.74,4.72,1.83,6.77,3.67
					C690.04,125.79,695.36,120.5,691.76,117.26L691.76,117.26z"/>
			</g>
		</g>
		<g>
			<g>
				<path class="st0" d="M684.27,181.97c-11.05,3.13-19.24,7.65-25.26,17.75c-5.39,9.05-5.19,21.03-2.63,30.98
					c2.62,10.22,8.86,19.06,18.14,24.24c10.59,5.9,22.89,6.68,34.75,5.91c4.79-0.31,4.83-7.81,0-7.5
					c-18.66,1.22-39.23-2.81-45.24-23.14c-2.27-7.68-3.18-18.04,0.69-25.36c4.85-9.15,11.94-12.92,21.55-15.64
					C690.9,187.88,688.93,180.65,684.27,181.97L684.27,181.97z"/>
			</g>
		</g>
		<g>
			<g>
				<path class="st0" d="M658.36,228.08c0.39,2.24,0.86,4.54,2.01,6.55c0.99,1.74,2.59,2.81,3.79,4.34c1.32,1.68,2.2,3.06,4.1,4.18
					c1.91,1.13,3.95,1.95,6.16,1.29c4.61-1.38,2.65-8.62-1.99-7.23c0.78-0.23,0.84,0.25-0.04-0.35c-0.37-0.25-0.84-0.39-1.16-0.72
					c-0.98-1.02-1.41-2.36-2.52-3.36c-2.16-1.93-2.62-3.87-3.11-6.7C664.77,221.34,657.54,223.35,658.36,228.08L658.36,228.08z"/>
			</g>
		</g>
		<g>
			<g>
				<path class="st0" d="M676.83,191.71c8.6-5.59,15.55-11.55,21.16-20.24c5.47-8.48,9.67-17.93,9.16-28.21
					c-0.24-4.8-7.74-4.83-7.5,0c0.88,17.72-12.72,32.97-26.6,41.98C669.01,187.85,672.77,194.35,676.83,191.71L676.83,191.71z"/>
			</g>
		</g>
		<g>
			<g>
				<path class="st0" d="M671.06,187.24c-2.79,1.79-5.06,3.99-7.03,6.63c-1.18,1.58-0.31,4.26,1.35,5.13
					c1.97,1.04,3.87,0.34,5.13-1.35c-0.3,0.4,0.1-0.12,0.22-0.26c0.16-0.19,0.32-0.38,0.49-0.56c0.41-0.46,0.85-0.9,1.3-1.33
					c0.41-0.38,0.83-0.75,1.27-1.09c-0.32,0.24-0.02,0.02,0.14-0.08c0.31-0.21,0.61-0.42,0.93-0.62c1.65-1.06,2.47-3.38,1.35-5.13
					C675.12,186.93,672.83,186.11,671.06,187.24L671.06,187.24z"/>
			</g>
		</g>
		<g>
			<g>
				<path class="st0" d="M672.26,186.56c-2.34,2.3-4.83,4.39-7.55,6.24c-1.54,1.05-2.32,2.9-1.53,4.68
					c0.69,1.56,2.66,2.86,4.42,2.17c2.27-0.89,4.39-1.87,5.97-3.8c0.68-0.84,1.23-1.78,1.92-2.61c-0.21,0.26,0.35-0.36,0.4-0.41
					c0.4-0.33-0.67,0.12,0.32-0.12c4.7-1.1,2.71-8.33-1.99-7.23c-2.31,0.54-3.84,2.13-5.2,3.97c-1.06,1.44-1.64,2.27-3.41,2.96
					c0.96,2.28,1.93,4.57,2.89,6.85c3.23-2.2,6.28-4.67,9.06-7.41C681.01,188.48,675.7,183.17,672.26,186.56L672.26,186.56z"/>
			</g>
		</g>
		<g>
			<g>
				<path class="st1" d="M675.02,209.74c6.03-6.21,12.05-12.44,17.3-19.34c2.8-3.67,5.14-7.56,7.6-11.46
					c2.22-3.53,5.16-6.62,7.16-10.28c3.76-6.92,4.07-14.94,3.4-22.62c-0.52-5.96-0.61-13.46-7.25-15.72
					c-3.49-1.18-6.45,3.83-3.65,6.27c12.88,11.24,10.42,27.45,4.52,41.76c-5.45,13.23-12.72,25.76-12.54,40.5
					c0.02,2.04,1.7,3.73,3.75,3.75c15.75,0.19,26.86-12.11,35.79-23.61c4.77-6.14,8.02-13,9.08-20.75c1.14-8.32-0.97-16.7,0.27-25
					c-2.28,0.3-4.57,0.6-6.85,0.9c10.39,15.46,12.17,35.12,12.8,53.28c0.18,5.39-1.2,9.47-4.51,13.69c-2.55,3.24-5.48,6.2-7.58,9.77
					c-3.76,6.39-4.19,14.16,1.04,19.83c3.37,3.64,8.17-1.6,5.3-5.3c-7.59-9.81,1.25-23.65,3.07-33.95
					c1.27-7.19,1.21-20.6-9.58-16.93c-4.18,1.42-7.31,4.6-10.32,7.69c-3.95,4.05-8.17,7.72-12.7,11.12
					c-4.38,3.28-8.84,6.66-13.53,9.5c-4.72,2.86-10.71,3.4-15.17,6.43c-1.01,0.69-2.01,1.9-1.86,3.24
					c0.63,5.44,6.75,7.63,11.08,9.96c5.96,3.21,11.93,6.38,15.23,12.57c1.71-1.71,3.42-3.42,5.13-5.13
					c-10.75-5.19-24.94-9.56-31.88-19.91c-2.98-4.45-4.78-9.7-5.01-15.06c-0.12-2.76-0.34-6.44,2.03-8.26
					c1.71-1.31,3.55-1.6,5.16-3.24c3.38-3.45-1.92-8.76-5.3-5.3c-1.89,1.93-4.86,2.19-6.69,4.31c-2.04,2.36-2.4,5.75-2.63,8.73
					c-0.49,6.43,0.96,12.9,3.75,18.68c7.03,14.57,23.17,19.94,36.8,26.52c3.34,1.61,6.97-1.69,5.13-5.13
					c-2.47-4.63-6.15-8.11-10.5-11c-4.91-3.27-11.59-5.21-15.78-9.43c0.37,0.88,0.73,1.77,1.1,2.65c-0.04-0.32-0.08-0.65-0.11-0.97
					c-0.62,1.08-1.24,2.16-1.86,3.24c3.68-2.5,8.88-3,12.88-5.12c4.36-2.31,8.34-5.37,12.33-8.25c3.75-2.71,7.47-5.49,11-8.49
					c3.73-3.19,6.85-7.11,10.67-10.17c0.66-0.53,2.37-1.22,2.85-1.8c0.91-0.06,1.11-0.38,0.58-0.95c-0.44-0.99-0.45-0.74-0.02,0.75
					c0.14,3.35,0.35,6.21-0.38,9.62c-1.11,5.2-3.21,10.13-4.5,15.28c-2.14,8.54-1.8,16.99,3.73,24.12c1.77-1.77,3.54-3.54,5.3-5.3
					c-6.73-7.29,5.61-17.03,9.33-22.67c4.84-7.34,4-15.4,3.39-23.78c-1.24-16.91-3.62-34.22-13.28-48.61
					c-1.59-2.36-6.34-2.56-6.85,0.9c-0.99,6.65-0.24,13.09-0.13,19.76c0.12,7.48-1.71,14.43-5.88,20.69
					c-7.03,10.56-18.17,23.57-31.89,23.41c1.25,1.25,2.5,2.5,3.75,3.75c-0.21-17.1,10.72-31.28,15.37-47.18
					c4.27-14.58,2.35-30.01-9.55-40.39c-1.22,2.09-2.43,4.18-3.65,6.27c2.68,0.91,2.1,14.39,1.99,16.78
					c-0.36,7.6-3.8,12.17-8.01,18.12c-3.79,5.36-6.82,11.07-11,16.19c-4.52,5.54-9.52,10.67-14.5,15.79
					C666.35,207.89,671.65,213.2,675.02,209.74L675.02,209.74z"/>
			</g>
		</g>
		<g>
			<g>
				<path class="st1" d="M708.4,256.46c1.83,0.59,3.46,1.33,5.13,2.28c3.57,2.04,7.9-3.07,4.54-5.89
					c-4.26-3.58-7.53-8.11-11.96-11.52c-1.8-1.38-3.68-2.63-5.66-3.75c-0.6-0.34-7.04-4.14-7.48-3.84c3.95-2.72,0.2-9.23-3.79-6.48
					c-6.2,4.28-3.08,11.11,2.43,14.22c4.1,2.31,8.19,4.09,11.77,7.25c3.33,2.94,5.97,6.55,9.38,9.42c1.51-1.96,3.03-3.93,4.54-5.89
					c-2.23-1.27-4.49-2.25-6.93-3.04C705.79,247.73,703.82,254.97,708.4,256.46L708.4,256.46z"/>
			</g>
		</g>
		<g>
			<g>
				<path class="st1" d="M690.86,225.42c-0.35,0.65-1.4,1.23-1.84,1.93c-0.4,0.63-0.69,1.36-0.88,2.08
					c-0.5,1.97-0.13,4.08,0.65,5.92c1.59,3.79,4.91,6.25,8.2,8.5c4,2.73,7.75-3.77,3.79-6.48c-1.73-1.18-3.72-2.47-4.79-4.33
					c-0.16-0.27-0.73-1.53-0.73-1.54c0.03-0.15,1.72-1.64,2.07-2.29C699.62,224.96,693.15,221.17,690.86,225.42L690.86,225.42z"/>
			</g>
		</g>
		<g>
			<g>
				<path class="st1" d="M702.81,139.11c9.95,1.31-2.53,26.1-4.58,30.37c-4.83,10.06-10.75,19.51-17.57,28.34
					c-3.69,4.78,3.83,9.45,7.85,6.06c3.21-2.71,7.35-4.93,7.65-9.48c0.14-2.18-1.66-4.26-3.67-4.82c-2.09-0.58-3.91-0.01-5.47,1.46
					c-1.5,1.42-2,4.29-0.78,6.06c0.05,0.07,0.09,0.13,0.14,0.2c3.63,5.26,12.31,0.26,8.63-5.05c-0.05-0.07-0.09-0.13-0.14-0.2
					c-0.26,2.02-0.52,4.04-0.78,6.06c0.09-0.09,0.18-0.17,0.28-0.26c-1.62,0.43-3.24,0.86-4.86,1.29c0.11,0.03,0.22,0.06,0.33,0.09
					c-1.22-1.61-2.45-3.21-3.67-4.82c-0.01,0.21-0.03,0.42-0.04,0.63c0.49-1.18,0.98-2.36,1.46-3.54c-1.74,1.98-4.12,3.62-6.14,5.32
					c2.62,2.02,5.24,4.04,7.85,6.06c9.55-12.37,17.19-25.97,22.84-40.54c2.68-6.91,5.8-14.79,3.65-22.27
					c-1.79-6.24-6.71-10.12-12.97-10.95C696.45,128.27,696.51,138.28,702.81,139.11L702.81,139.11z"/>
			</g>
		</g>
		<g>
			<g>
				<path class="st1" d="M684.04,187.06c-6.59,5.48-13.07,12.35-16.87,20.13c-3.87,7.92-3.18,17.64-0.12,25.73
					c2.84,7.5,7.91,15,15.28,18.64c4.23,2.09,8.4,1.85,12.96,2.37c5.36,0.62,10.43,2.85,15.32,5.02c5.83,2.58,10.93-6.03,5.05-8.63
					c-6.94-3.07-13.84-5.97-21.5-6.51c-3.97-0.28-7.15-0.5-10.33-3.17c-2.73-2.29-4.83-5.42-6.36-8.61
					c-3.08-6.41-4.43-14.76-0.92-21.23c3.52-6.48,8.93-12,14.56-16.67C696.06,190.01,688.95,182.97,684.04,187.06L684.04,187.06z"/>
			</g>
		</g>
		<g>
			<g>
				<path class="st1" d="M699.47,188.46c-0.6,9.82,0.15,19.53,2.06,29.18c1.25,6.31,10.89,3.64,9.64-2.66
					c-1.74-8.78-2.24-17.59-1.7-26.52C709.86,182.03,699.86,182.06,699.47,188.46L699.47,188.46z"/>
			</g>
		</g>
		<g>
			<g>
				<path class="st1" d="M736.5,195.79c4.74,6.55,1.03,11.13-1.48,17.64c-2.13,5.51-1.02,9.22,4.42,11.29
					c-1.22-1.61-2.45-3.21-3.67-4.82c0.38,3.9-2.08,8.63-3.43,12.2c-1.43,3.76-2.62,7.47-2.18,11.55
					c0.82,7.67,6.73,11.12,13.37,13.45c6.08,2.14,8.7-7.52,2.66-9.64c-2.09-0.73-4.64-1.44-5.69-3.54c-1.28-2.55,0.23-5.9,1.15-8.33
					c1.78-4.66,4.61-10.59,4.12-15.69c-0.23-2.41-1.43-3.97-3.67-4.82c-0.44-0.22-0.91-0.34-1.41-0.37c1,0.77,1.99,1.53,2.99,2.3
					c0.84,1.18,1.11-1.06,1.55-1.98c0.6-1.26,1.29-2.47,1.86-3.75c1-2.25,1.68-4.5,1.9-6.96c0.42-4.85-1.03-9.67-3.86-13.59
					C741.4,185.58,732.72,190.56,736.5,195.79L736.5,195.79z"/>
			</g>
		</g>
		<g>
			<g>
				<path class="st1" d="M745.28,247.26c-7.51-5.08-1.09-13.47,3.28-18.39c4.41-4.95,6.71-10.48,7.34-17.07c0.61-6.4-9.4-6.36-10,0
					c-0.88,9.23-9.91,13.59-12.57,22.1c-1.26,4.04-2.24,8.73-1.05,12.88c1.19,4.18,4.51,6.77,7.96,9.1
					C745.58,259.52,750.59,250.86,745.28,247.26L745.28,247.26z"/>
			</g>
		</g>
		<g>
			<g>
				<path class="st1" d="M747.87,211.29c-0.93,4.84-3.28,8.66-7.11,11.75c-2.1,1.7-1.77,5.31,0,7.07c2.08,2.08,4.96,1.7,7.07,0
					c5.01-4.03,8.46-9.85,9.68-16.16c0.51-2.65-0.75-5.4-3.49-6.15C751.57,207.12,748.39,208.62,747.87,211.29L747.87,211.29z"/>
			</g>
		</g>
		<g>
			<g>
				<path class="st1" d="M733.76,158.78c-0.01,7.2-0.92,15.03,0.73,22.09c1.28,5.48,9.97,4.31,9.82-1.33
					c-0.11-4.42-0.05-8.82,0.19-13.23c-3.27,0.44-6.55,0.89-9.82,1.33c1.37,5.26,2.42,10.58,3.44,15.91c0.89,4.66,8.94,4.88,9.64,0
					c0.63-4.37-0.04-7.96-1.58-12.09c-2.24-6.01-10.91-3.71-9.64,2.66c0.92,4.64,2.31,16.79,9.96,14.19
					c2.19-0.75,3.56-2.51,3.67-4.82c0.01-0.15,0.02-0.31,0.02-0.46c0.32-6.43-9.68-6.42-10,0c-0.01,0.15-0.02,0.31-0.02,0.46
					c1.22-1.61,2.45-3.21,3.67-4.82c-0.17,0.06-0.34,0.12-0.52,0.18c1.62,0.43,3.24,0.86,4.86,1.29c-1.09-0.92-1.71-7.19-2-8.67
					c-3.21,0.89-6.43,1.77-9.64,2.66c0.78,2.09,1.91,4.47,1.58,6.77c3.21,0,6.43,0,9.64,0c-1.02-5.34-2.07-10.66-3.44-15.91
					c-1.47-5.62-9.52-4.18-9.82,1.33c-0.24,4.41-0.3,8.81-0.19,13.23c3.27-0.44,6.55-0.89,9.82-1.33
					c-1.4-6.03-0.38-13.27-0.37-19.43C743.77,152.34,733.77,152.33,733.76,158.78L733.76,158.78z"/>
			</g>
		</g>
		<g>
			<g>
				<path class="st1" d="M736.68,164.17c2.26,7.34,4.57,14.67,6.77,22.03c2.05,6.86,3.8,13.7,1.47,20.71
					c-2.04,6.12,7.62,8.74,9.64,2.66c2.5-7.51,1.5-15.2-0.51-22.7c-2.29-8.52-5.13-16.92-7.73-25.35
					C744.43,155.38,734.78,158,736.68,164.17L736.68,164.17z"/>
			</g>
		</g>
		<g>
			<g>
				<path class="st1" d="M693.93,130.85c4.37,2.6,9.73,5.69,11.78,10.65c1.03,2.49,3.32,4.27,6.15,3.49
					c2.36-0.65,4.53-3.64,3.49-6.15c-3.18-7.71-9.38-12.46-16.37-16.62C693.44,118.92,688.4,127.56,693.93,130.85L693.93,130.85z"/>
			</g>
		</g>
		<g>
			<g>
				<path class="st1" d="M694.03,131.22c15.82,14.85,6.51,40.34-5.57,54.45c-4.17,4.86,2.88,11.97,7.07,7.07
					c15.59-18.2,25.68-49.71,5.57-68.59C696.41,119.75,689.32,126.8,694.03,131.22L694.03,131.22z"/>
			</g>
		</g>
		<g>
			<g>
				<path class="st1" d="M692.74,177.6c-10,10.03-23.07,18.29-27.08,32.73c-4.22,15.21,5.7,27.66,16.49,37.06
					c4.83,4.21,11.93-2.83,7.07-7.07c-8.91-7.77-18.37-17.84-12.81-30.43c4.7-10.64,15.44-17.24,23.4-25.23
					C704.36,180.11,697.29,173.03,692.74,177.6L692.74,177.6z"/>
			</g>
		</g>
		<g>
			<g>
				<path class="st1" d="M731.66,149.82c1.85,3.79,3.17,7.75,4.11,11.86c1.44,6.27,11.09,3.62,9.64-2.66
					c-1.14-4.95-2.9-9.68-5.12-14.25c-1.18-2.43-4.64-3.08-6.84-1.79C730.97,144.43,730.47,147.38,731.66,149.82L731.66,149.82z"/>
			</g>
		</g>
		<g>
			<g>
				<path class="st1" d="M731.88,148.58c3.38,4.34,2.69,11.23,2.45,16.35c-0.31,6.83-1.34,13.54-2.91,20.19
					c-1.48,6.28,7.68,8.79,9.64,2.66c1.95-6.09,1.12-12.81,0.88-19.09c-0.28-7.35-0.68-14.68-1.16-22.02c-0.42-6.39-10.42-6.44-10,0
					c0.44,6.7,0.81,13.4,1.08,20.1c0.24,5.88,1.37,12.66-0.45,18.35c3.21,0.89,6.43,1.77,9.64,2.66c3.3-13.98,7.5-33.93-2.11-46.26
					C735,136.43,727.97,143.56,731.88,148.58L731.88,148.58z"/>
			</g>
		</g>
		<g>
			<g>
				<path class="st1" d="M734.92,201.39c-1.11,7.43-2.7,14.76-4.89,21.95c-1.96,6.42-4.3,12.96-2.95,19.75
					c2.83,14.23,19.31,16.71,31.39,14.71c6.33-1.05,3.65-10.69-2.66-9.64c-5.01,0.83-11.55,0.68-15.9-2.27
					c-4.02-2.72-3.53-8.03-2.55-12.21c2.35-9.97,5.69-19.43,7.21-29.63C745.5,197.76,735.87,195.04,734.92,201.39L734.92,201.39z"/>
			</g>
		</g>
		<g>
			<g>
				<path class="st1" d="M713.54,260.96c1-0.09,2-0.06,2.99,0.08c6.19,0.96,9.05-8,2.66-9.64c-5.17-1.33-10.35-2.65-15.52-3.98
					c-4.62-1.18-9.83-1.91-14.07-4.17c-1.68,2.88-3.36,5.76-5.05,8.63c8.42,3.76,16.86,7.47,26.06,8.75
					c6.29,0.87,9.02-8.76,2.66-9.64c-8.37-1.16-16.01-4.32-23.68-7.74c-5.75-2.57-10.84,5.54-5.05,8.63
					c4.57,2.44,9.65,3.43,14.63,4.71c5.78,1.48,11.56,2.97,17.35,4.45c0.89-3.21,1.77-6.43,2.66-9.64c-1.91-0.3-3.71-0.5-5.65-0.44
					C707.12,251.18,707.09,261.19,713.54,260.96L713.54,260.96z"/>
			</g>
		</g>
		<g>
			<g>
				<path class="st0" d="M728.89,142.68c2.9,13.93,7.37,30.62-2.41,42.95c-1.98,2.5,1.54,6.06,3.54,3.54
					c11.15-14.06,7.05-31.72,3.69-47.82C733.06,138.2,728.24,139.53,728.89,142.68L728.89,142.68z"/>
			</g>
		</g>
		<g>
			<g>
				<path class="st0" d="M733.75,141.76c6.38,13.09,11.63,26.63,15.78,40.58c0.92,3.08,5.74,1.77,4.82-1.33
					c-4.27-14.36-9.72-28.31-16.28-41.78C736.66,136.35,732.35,138.88,733.75,141.76L733.75,141.76z"/>
			</g>
		</g>
		<g>
			<g>
				<path class="st0" d="M737.27,141.88c-1.27-1.18-2.5-2.41-3.68-3.68c-2.22-2.38-5.6,1.12-3.54,3.54
					c3.06,3.58,5.76,7.4,8.15,11.45c1.63,2.77,5.96,0.26,4.32-2.52c-2.6-4.42-5.6-8.57-8.93-12.46c-1.18,1.18-2.36,2.36-3.54,3.54
					c1.19,1.27,2.41,2.49,3.68,3.68C736.09,147.6,739.64,144.07,737.27,141.88L737.27,141.88z"/>
			</g>
		</g>
		<g>
			<g>
				<path class="st0" d="M745.31,155.5c-0.87-2.39-2.07-4.44-3.73-6.36c-1.18,1.18-2.36,2.36-3.54,3.54
					c0.96,0.98,0.91,3.01,1.75,4.19c1.05,1.49,2.99,1.94,3.08,4c0.15,3.2,5.15,3.22,5,0c-0.13-2.83-1.36-4.67-3.47-6.45
					c-0.82-0.69-0.81-1.28-1.14-2.31c-0.37-1.16-0.83-2.1-1.69-2.97c-2.28-2.32-5.62,1.13-3.54,3.54c1.07,1.24,1.89,2.62,2.45,4.15
					C741.59,159.83,746.42,158.53,745.31,155.5L745.31,155.5z"/>
			</g>
		</g>
		<g>
			<g>
				<path class="st0" d="M739.58,141.24c-3.76-5.02-8.69-8.6-14.69-10.49c-2.62-0.82-3.85,2.39-2.43,4.18
					c1.86,2.35,3.72,4.69,5.57,7.04c2,2.52,5.51-1.04,3.54-3.54c-1.86-2.35-3.72-4.69-5.57-7.04c-0.81,1.39-1.62,2.79-2.43,4.18
					c4.66,1.46,8.76,4.27,11.7,8.19C737.17,146.31,741.52,143.82,739.58,141.24L739.58,141.24z"/>
			</g>
		</g>
		<g>
			<g>
				<path class="st0" d="M711.62,178.69c-3.64,5.48-6.86,11.39-8.15,17.91c-0.97,4.89-1.58,12.22,1.44,16.56
					c0.46,0.66,1.27,1.35,2.16,1.24c1.94-0.25,3.13-1.08,3.46-3.11c0.27-1.67-0.99-3.84-1.35-5.43c-0.64-2.82-0.7-5.55-0.53-8.41
					c-1.67,0-3.33,0-5,0c0.03,3.04,0.05,6.07,0.08,9.11c0.03,3.22,5.03,3.22,5,0c-0.03-3.04-0.05-6.07-0.08-9.11
					c-0.03-3.24-4.81-3.19-5,0c-0.15,2.57-0.1,5.06,0.31,7.61c0.13,0.83,1.56,5.47,1.55,5.49c0.72-0.41,1.44-0.83,2.16-1.24
					c-0.2,0.03-0.39,0.05-0.59,0.08c0.72,0.41,1.44,0.83,2.16,1.24c-2.84-4.08-1.43-11.62-0.13-15.94
					c1.47-4.88,4.03-9.27,6.84-13.48C717.73,178.53,713.4,176.02,711.62,178.69L711.62,178.69z"/>
			</g>
		</g>
		<g>
			<g>
				<path class="st0" d="M697.27,164.92c-3.71,5.53-7.13,11.62-11.58,16.59c-4.06,4.53-8.45,8.44-12.1,13.37
					c-6.34,8.56-13.87,18.39-11.93,29.64c0.55,3.16,5.37,1.82,4.82-1.33c-1.08-6.23,2.04-11.82,5.28-16.9
					c3.1-4.87,6.44-9.74,10.27-14.06c3.31-3.74,7.17-6.83,10.15-10.88c3.3-4.51,6.29-9.27,9.41-13.91
					C703.38,164.77,699.06,162.26,697.27,164.92L697.27,164.92z"/>
			</g>
		</g>
		<g>
			<g>
				<path class="st0" d="M701.77,139.13c-2.88-5.87-5.21-13.15-10.84-16.96c-2.67-1.81-5.18,2.52-2.52,4.32
					c4.59,3.1,6.71,10.38,9.05,15.17C698.86,144.55,703.18,142.02,701.77,139.13L701.77,139.13z"/>
			</g>
		</g>
		<g>
			<g>
				<path class="st0" d="M700.62,135.11c-2.41-4.46-4.54-10.02-9.21-12.59c-2.82-1.55-5.35,2.77-2.52,4.32
					c3.72,2.04,5.5,7.25,7.42,10.79C697.83,140.46,702.15,137.94,700.62,135.11L700.62,135.11z"/>
			</g>
		</g>
		<g>
			<g>
				<path class="st0" d="M692.18,124.58c15.05,7.01,29.43,21.34,23.94,39.39c-0.94,3.09,3.89,4.4,4.82,1.33
					c6.13-20.13-9.13-37.06-26.24-45.03C691.8,118.91,689.26,123.22,692.18,124.58L692.18,124.58z"/>
			</g>
		</g>
		<g>
			<g>
				<path class="st0" d="M732.89,145.13c3.93,4.24,6.05,11.78,8.25,17.05c2.27,5.42,4.35,10.92,6.25,16.48
					c3.91,11.42,7.02,23.09,9.41,34.92c0.64,3.15,5.46,1.82,4.82-1.33c-2.64-13.05-6.15-25.89-10.63-38.43
					c-2.05-5.74-4.31-11.4-6.73-16.99c-2.16-4.99-4.09-11.2-7.84-15.24C734.24,139.24,730.71,142.78,732.89,145.13L732.89,145.13z"
					/>
			</g>
		</g>
		<g>
			<g>
				<path class="st0" d="M711.59,225.67c1.27-2.75,4.49-3.92,6.81-5.68c2.1-1.6,4.01-3.41,5.86-5.29
					c4.14-4.19,7.92-8.61,13.04-11.66c-1.22-0.5-2.45-1-3.67-1.49c2.19,5.2-0.76,10.76-2.58,15.67c-1.9,5.12-3.8,10.25-5.7,15.37
					c-1.12,3.02,3.71,4.33,4.82,1.33c2.35-6.33,4.71-12.65,7.04-18.99c1.78-4.85,3.34-9.72,1.24-14.71
					c-0.61-1.45-2.14-2.41-3.67-1.49c-5.49,3.27-9.6,7.94-14.05,12.44c-2.35,2.38-4.79,4.56-7.59,6.41
					c-2.43,1.61-4.59,2.8-5.86,5.56C705.93,226.05,710.24,228.6,711.59,225.67L711.59,225.67z"/>
			</g>
		</g>
		<g>
			<g>
				<path class="st0" d="M709.21,220.94c-4.78,4.94-10.2,14.39-6.81,21.42c1.68,3.49,5.26,6.52,7.93,9.23
					c3.34,3.38,6.94,6.41,10.98,8.92c2.74,1.7,5.25-2.62,2.52-4.32c-5.4-3.36-9.78-7.8-14.03-12.49c-2.95-3.25-3.72-6.29-2.43-10.46
					c1.06-3.42,2.9-6.21,5.38-8.77C714.98,222.17,711.45,218.63,709.21,220.94L709.21,220.94z"/>
			</g>
		</g>
		<g>
			<g>
				<path class="st0" d="M717,255.12c1.48,1.23,2.97,2.46,4.45,3.69c1.04,0.86,2.52,1.02,3.54,0c0.89-0.89,1.04-2.67,0-3.54
					c-1.48-1.23-2.97-2.46-4.45-3.69c-1.04-0.86-2.52-1.02-3.54,0C716.11,252.47,715.95,254.26,717,255.12L717,255.12z"/>
			</g>
		</g>
		<g>
			<g>
				<path class="st0" d="M739.18,245.49c2.28,3.87,4.73,6.49,9.2,7.57c5.62,1.36,11.44,1.13,17.09,0.14
					c3.16-0.55,1.82-5.37-1.33-4.82c-4.2,0.74-8.48,0.92-12.7,0.2c-3.9-0.66-5.94-2.22-7.94-5.62
					C741.86,240.2,737.54,242.71,739.18,245.49L739.18,245.49z"/>
			</g>
		</g>
		<g>
			<g>
				<path class="st0" d="M744.7,259.02c6.44,1.69,14.16-0.9,20.04-3.48c2.94-1.29,0.4-5.6-2.52-4.32
					c-4.59,2.02-11.17,4.29-16.19,2.97C742.91,253.38,741.59,258.21,744.7,259.02L744.7,259.02z"/>
			</g>
		</g>
		<g>
			<g>
				<path class="st0" d="M734.29,256.88c7.1,3.32,16.41,3.38,24.05,2.31c3.17-0.44,1.82-5.26-1.33-4.82
					c-6.04,0.84-14.6,0.8-20.19-1.81C733.91,251.21,731.37,255.52,734.29,256.88L734.29,256.88z"/>
			</g>
		</g>
		<g>
			<g>
				<path class="st0" d="M718.25,157.92c-3.42,7.33-6.58,14.77-9.43,22.34c-2.54,6.74-5.58,13.66-3.75,20.94
					c0.79,3.12,5.61,1.8,4.82-1.33c-1.68-6.65,2.08-13.94,4.42-20.05c2.52-6.56,5.29-13.01,8.26-19.38
					C723.92,157.54,719.61,155,718.25,157.92L718.25,157.92z"/>
			</g>
		</g>
		<g>
			<g>
				<path class="st1" d="M691.8,180.86c-4.28,3.9-9.1,6.87-13.08,11.15c-3.64,3.9-7.4,8.05-10.19,12.61
					c-6.25,10.24-2.21,19.84,4.03,28.92c1.81,2.64,6.15,0.14,4.32-2.52c-2.67-3.88-5.56-8.02-6.48-12.72
					c-1.21-6.18,2.22-11.39,5.95-15.95c2.75-3.37,5.62-6.73,8.79-9.73c3.19-3.02,6.97-5.28,10.21-8.23
					C697.72,182.23,694.18,178.7,691.8,180.86L691.8,180.86z"/>
			</g>
		</g>
		<g>
			<g>
				<path class="st1" d="M711.67,215.24c-5.9,4.15-9.22,12.21-11.18,18.94c-1.97,6.76-1.33,14.04,3.8,19.21
					c2.27,2.28,5.81-1.25,3.54-3.54c-4.34-4.37-3.91-10.55-1.99-15.98c1.68-4.74,4.08-11.32,8.36-14.32
					C716.81,217.73,714.31,213.39,711.67,215.24L711.67,215.24z"/>
			</g>
		</g>
		<g>
			<g>
				<path class="st0" d="M714.19,252.64c6.49,6.73,15.19,14.25,25.15,12.83c2.47-0.35,2.3-4.32,0-4.82
					c-13.37-2.9-26.13-11.58-27.59-26.23c-0.32-3.17-5.32-3.2-5,0c1.68,16.87,15.5,27.63,31.26,31.05c0-1.61,0-3.21,0-4.82
					c-7.7,1.1-15.42-6.5-20.28-11.55C715.49,246.78,711.96,250.32,714.19,252.64L714.19,252.64z"/>
			</g>
		</g>
		<g>
			<g>
				<path class="st0" d="M676.76,115.97c2.94,3.36,6.35,6.22,10.12,8.59c2.73,1.71,5.25-2.61,2.52-4.32
					c-3.43-2.15-6.44-4.76-9.11-7.81C678.17,110.01,674.65,113.55,676.76,115.97L676.76,115.97z"/>
			</g>
		</g>
		<g>
			<g>
				<path class="st0" d="M677.87,115.78c2.93,1.86,5.77,3.84,8.53,5.94c-0.17-1.31-0.34-2.62-0.51-3.93
					c-0.12,0.1-0.24,0.21-0.35,0.31c0.59-0.24,1.18-0.49,1.77-0.73c-0.73,0.02-2.3-1.73-2.88-2.19c-1.03-0.81-2.07-1.62-3.1-2.43
					c-1.93-1.51-4.73-0.16-4.18,2.43c0.8,3.75,3.91,5.05,6.35,7.6c1.1,1.16,1.86,2.46,3.12,3.48c1.24,1.01,2.9,1.57,3.62,3.08
					c1.39,2.9,5.7,0.37,4.32-2.52c-1.3-2.71-4.26-3.55-6.07-5.79c-1-1.24-1.96-2.3-3.22-3.29c-1.42-1.13-2.89-2.01-3.29-3.88
					c-1.39,0.81-2.79,1.62-4.18,2.43c2.24,1.76,4.48,3.99,6.95,5.41c1.65,0.95,3.25,0.9,4.68-0.37c1.33-1.18,0.68-3.02-0.51-3.93
					c-2.76-2.11-5.6-4.09-8.53-5.94C677.66,109.73,675.15,114.06,677.87,115.78L677.87,115.78z"/>
			</g>
		</g>
	</g>
	<g>
		<g>
			<path class="st1" d="M673.04,225.17c1.38,0.9,1.98,3.29,2.64,4.73c0.99,2.16,2.23,4.24,4.13,5.72c3.92,3.06,9.36,0.31,8.36-4.86
				c-1.01-5.24-2.5-10.31-4.48-15.27c-1.86-4.66-7.82-4.79-9.64,0c-0.95,2.5-1.39,5.02-1.55,7.69c-0.39,6.43,9.61,6.4,10,0
				c0.11-1.77,0.56-3.37,1.19-5.03c-3.21,0-6.43,0-9.64,0c1.98,4.96,3.47,10.03,4.48,15.27c2.79-1.62,5.57-3.24,8.36-4.86
				c-1.87-1.46-2.51-3.68-3.5-5.76c-1.23-2.59-2.89-4.67-5.31-6.24C672.67,213.02,667.66,221.67,673.04,225.17L673.04,225.17z"/>
		</g>
	</g>
	<g>
		<g>
			<path class="st1" d="M670.02,211.17c-3.83,5.52-5.31,11.56-4.15,18.18c0.97,5.5,10.35,4.29,9.82-1.33
				c-0.35-3.79-0.76-7.45,1.27-10.84c1.94-3.24,4.48-6.08,7.12-8.77c4.52-4.59-2.55-11.67-7.07-7.07c-3.46,3.52-7.04,7.5-9.31,11.91
				c-2.43,4.7-2.49,9.62-2.01,14.77c3.27-0.44,6.55-0.89,9.82-1.33c-0.69-3.94,0.96-7.32,3.14-10.47
				C682.33,210.92,673.66,205.91,670.02,211.17L670.02,211.17z"/>
		</g>
	</g>
	<g>
		<g>
			<path class="st1" d="M698.82,133.73c6.6,17.6,2.82,37.75-10.02,51.55c-1.84,1.98,0.63,5.66,3.03,3.93
				c9.86-7.12,13.82-21.45,15.42-32.93c1.61-11.61-0.78-23.85-9.81-31.94c-1.01,1.31-2.02,2.62-3.03,3.93
				c8.7,6.11,14.06,15.77,14.69,26.38c0.19,3.2,5.19,3.22,5,0c-0.75-12.49-6.93-23.51-17.17-30.7c-2.32-1.63-5.14,2.04-3.03,3.93
				c8.2,7.34,9.96,18.43,8.25,28.89c-1.54,9.4-4.7,22.24-12.84,28.12c1.01,1.31,2.02,2.62,3.03,3.93
				c13.97-15.03,18.53-37.15,11.3-56.42C702.52,129.42,697.69,130.71,698.82,133.73L698.82,133.73z"/>
		</g>
	</g>
	<g>
		<g>
			<path class="st1" d="M708.37,222.66c4.48-4.52,9.23-8.68,14.33-12.48c-1.14-1.14-2.28-2.28-3.42-3.42
				c-2.87,3.91-6.34,7.02-10.48,9.55c1.01,1.31,2.02,2.62,3.03,3.93c5.85-6.25,12.18-12.01,19.1-17.06
				c1.26-0.91,2.87-2.58,4.31-3.01c1.27-1.53,2.35-1.24,3.22,0.85c0.13,0.75,0.26,1.51,0.39,2.26c0.26,4.74-2.78,9.37-4.82,13.48
				c-3.02,6.09-7.76,12.97-8.05,19.97c-0.13,2.99,0.6,5.96,2.43,8.36c1.88,2.47,4.99,3.61,6.61,6.3c1.65,2.76,5.98,0.24,4.32-2.52
				c-1.88-3.13-5.74-4.46-7.47-7.54c-3.12-5.55,1.9-12.79,4.33-17.69c3.48-7.02,9.58-15.69,7.09-23.94
				c-0.75-2.47-2.54-5.41-5.34-5.8c-3-0.42-5.87,2.37-8.11,3.95c-7.82,5.53-15,11.87-21.54,18.86c-1.89,2.02,0.53,5.45,3.03,3.93
				c4.89-2.99,8.88-6.73,12.28-11.35c1.45-1.97-1.45-4.89-3.42-3.42c-5.45,4.05-10.56,8.44-15.34,13.26
				C702.57,221.41,706.1,224.94,708.37,222.66L708.37,222.66z"/>
		</g>
	</g>
	<g>
		<g>
			<path class="st1" d="M731.42,251.05c9.22,5.73,20.34,6.89,30.51,3.07c2.98-1.12,1.7-5.95-1.33-4.82
				c-4.7,1.75-11.15,4.26-15.61,0.79c-4.64-3.61-2.77-10.8-0.41-15.15c2.67-4.91,6.57-9.04,8.95-14.13
				c1.98-4.24,2.86-8.89,2.9-13.55c0.09-10.92-4.04-21.38-7.65-31.5c-3.95-11.05-7.51-22.34-12.5-32.97
				c-1.44,0.84-2.88,1.68-4.32,2.52c6.43,10.05,10.66,21.11,14.43,32.38c4.01,12,8.97,24.68,6.83,37.53
				c-0.52,3.15,4.29,4.5,4.82,1.33c2.22-13.35-2.12-25.98-6.27-38.51c-4.05-12.23-8.52-24.35-15.5-35.25
				c-1.76-2.74-5.67-0.36-4.32,2.52c5.96,12.69,10.25,26.41,14.79,39.66c4.41,12.84,7.54,26.28-0.44,38.39
				c-5.01,7.6-12.05,16.24-8.01,25.93c4.14,9.91,15.59,7.83,23.63,4.84c-0.44-1.61-0.89-3.21-1.33-4.82
				c-9.01,3.39-18.46,2.53-26.65-2.56C731.2,245.03,728.69,249.35,731.42,251.05L731.42,251.05z"/>
		</g>
	</g>
	<g>
		<g>
			<path class="st1" d="M732.08,144.59c3.58,7.59,5.06,15.62,5.32,23.98c0.26,8.31-1.85,14.19-6.23,21.18
				c-1.71,2.73,2.61,5.25,4.32,2.52c4.87-7.77,7.2-14.47,6.91-23.7c-0.29-9.26-2.04-18.1-6-26.5
				C735.02,139.16,730.71,141.69,732.08,144.59L732.08,144.59z"/>
		</g>
	</g>
	<g>
		<g>
			<path class="st1" d="M732.66,195.15c1.69-6.24,7.54-10.27,9.63-16.42c0.91-2.67-3.27-4.44-4.57-1.93
				c-2.88,5.57-6.23,10.86-10.12,15.78c-1.98,2.5,1.54,6.06,3.54,3.54c4.16-5.26,7.82-10.82,10.9-16.79
				c-1.52-0.64-3.05-1.28-4.57-1.93c-2.08,6.13-7.9,10.04-9.63,16.42C727,196.93,731.82,198.26,732.66,195.15L732.66,195.15z"/>
		</g>
	</g>
	<g>
		<g>
			<path class="st0" d="M754.09,249.53c1.91,0,3.83-0.01,5.74-0.01c1.61,0,1.61-2.49,0-2.5c-3.7-0.03-7.34,0.3-10.98,0.97
				c-1.17,0.22-1.21,2.23,0,2.41c6.49,0.94,12.75,0.48,19-1.52c-0.32-0.76-0.64-1.52-0.96-2.28c-2.47,1.84-5.94,1.34-8.85,1.37
				c-3.29,0.04-6.57,0.07-9.86,0.11c-1.36,0.02-1.76,2.18-0.33,2.46c6.19,1.18,12.29,1.19,18.48,0.03c1.58-0.3,0.91-2.71-0.66-2.41
				c-5.74,1.08-11.42,1.07-17.15-0.03c-0.11,0.82-0.22,1.64-0.33,2.46c4.3-0.05,8.59-0.08,12.89-0.15c2.56-0.04,4.95-0.1,7.08-1.68
				c1.05-0.78,0.5-2.75-0.96-2.28c-5.79,1.85-11.65,2.39-17.67,1.52c0,0.8,0,1.61,0,2.41c3.44-0.63,6.83-0.91,10.32-0.88
				c0-0.83,0-1.67,0-2.5c-1.91,0-3.83,0.01-5.74,0.01C752.48,247.03,752.47,249.53,754.09,249.53L754.09,249.53z"/>
		</g>
	</g>
	<g>
		<g>
			<path class="st0" d="M724.79,226.84c-0.03,7.1,1.02,14.14,3.48,20.82c1.5,4.06,3.33,8.86,8.28,9.01c1.12,0.03,1.6-1.37,0.88-2.13
				c-3.28-3.52-4.65-6.67-6.07-11.13c-1.31-4.11-3.21-7.77-2.86-12.22c0.29-3.81,1.9-7.41,3.13-10.97c1.43-4.12,2.46-8.26,3.1-12.58
				c0.23-1.55-2.03-2.27-2.41-0.66c-0.28,1.18-0.56,2.36-0.84,3.54c-0.37,1.56,2.04,2.23,2.41,0.66c0.28-1.18,0.56-2.36,0.84-3.54
				c-0.8-0.22-1.61-0.44-2.41-0.66c-0.77,5.19-2.21,10.04-3.97,14.97c-1.44,4.04-2.78,8.2-2.3,12.55c0.44,4.07,2.41,7.95,3.56,11.85
				c1.2,4.08,3.16,6.87,6.05,9.96c0.29-0.71,0.59-1.42,0.88-2.13c-4.99-0.15-6.69-9.16-7.64-13c-1.17-4.71-1.63-9.49-1.61-14.33
				C727.3,225.23,724.8,225.23,724.79,226.84L724.79,226.84z"/>
		</g>
	</g>
	<g>
		<g>
			<path class="st0" d="M734.68,206.94c0.31-0.45,0.62-0.9,0.93-1.36c0.38-0.56,0.1-1.39-0.45-1.71c-0.62-0.36-1.33-0.11-1.71,0.45
				c-0.31,0.45-0.62,0.9-0.93,1.36c-0.38,0.56-0.1,1.39,0.45,1.71C733.59,207.76,734.3,207.5,734.68,206.94L734.68,206.94z"/>
		</g>
	</g>
	<g>
		<g>
			<path class="st0" d="M759.14,212.29c-2.89,8.08-7.24,15.31-13,21.67c-1.08,1.19,0.68,2.96,1.77,1.77
				c6.05-6.67,10.61-14.29,13.65-22.77C762.1,211.43,759.68,210.78,759.14,212.29L759.14,212.29z"/>
		</g>
	</g>
	<g>
		<g>
			<path class="st0" d="M709.11,200.56c-1.48,3.15-0.98,6.48-2.82,9.61c-0.61,1.04,0.64,2.41,1.71,1.71
				c3.86-2.54,7.37-5.41,10.62-8.7c-0.7-0.41-1.39-0.81-2.09-1.22c-1.71,4.67-6.58,5.36-8.98,9.3c-0.61,1.01,0.67,2.48,1.71,1.71
				c4.89-3.61,8.53-8.27,12.23-13.04c3.36-4.33,7.33-8.55,9.12-13.81c0.53-1.55-1.83-2.13-2.41-0.66
				c-4.13,10.35-11.12,19.05-20.32,25.35c-1.32,0.9-0.07,3.07,1.26,2.16c9.78-6.69,17.07-15.84,21.47-26.84
				c-0.8-0.22-1.61-0.44-2.41-0.66c-1.82,5.33-6.14,9.71-9.55,14.09c-3.2,4.11-6.42,8.14-10.65,11.26c0.57,0.57,1.14,1.14,1.71,1.71
				c1.5-2.46,4.58-3.26,6.53-5.27c1.3-1.34,2.06-2.89,2.7-4.63c0.44-1.21-1.25-2.06-2.09-1.22c-3.1,3.14-6.42,5.88-10.11,8.31
				c0.57,0.57,1.14,1.14,1.71,1.71c1.86-3.17,1.32-6.44,2.82-9.61C711.95,200.38,709.8,199.11,709.11,200.56L709.11,200.56z"/>
		</g>
	</g>
	<g>
		<g>
			<path class="st0" d="M731.34,156.54c0.42,5.82-0.4,11.34-2.48,16.78c0.8,0.22,1.61,0.44,2.41,0.66
				c0.79-5.81,2.05-11.78,2.14-17.65c0.1-5.96-2.03-11.85-3.48-17.56c-0.4-1.56-2.81-0.9-2.41,0.66c1.39,5.48,3.44,11.19,3.39,16.9
				c-0.04,5.66-1.29,11.39-2.05,16.99c-0.22,1.58,1.82,2.2,2.41,0.66c2.17-5.68,3.01-11.38,2.57-17.45
				C733.72,154.95,731.22,154.94,731.34,156.54L731.34,156.54z"/>
		</g>
	</g>
	<g>
		<g>
			<path class="st0" d="M697.51,122.65c6.63,4.07,13.41,8.42,16.68,15.79c0.65,1.47,2.8,0.2,2.16-1.26
				c-3.43-7.74-10.61-12.41-17.57-16.68C697.4,119.65,696.14,121.81,697.51,122.65L697.51,122.65z"/>
		</g>
	</g>
	<g>
		<g>
			<path class="st0" d="M689.52,125.21c2.78,3.34,4.73,7.12,5.92,11.29c0.44,1.55,2.79,0.9,2.41-0.66
				c-1.29-5.38-3.73-10.21-7.21-14.5c-1.01-1.25-2.77,0.53-1.77,1.77c3.21,3.95,5.38,8.45,6.57,13.4c0.8-0.22,1.61-0.44,2.41-0.66
				c-1.3-4.6-3.51-8.72-6.56-12.39C690.26,122.2,688.5,123.98,689.52,125.21L689.52,125.21z"/>
		</g>
	</g>
	<g>
		<g>
			<path class="st0" d="M694.67,122.72c4.72,3.49,8.48,8.43,11.99,13.08c3.19,4.24,6.11,8.86,7.29,14.1
				c2.64,11.79-2.79,25.42-5.53,36.83c-0.38,1.56,2.03,2.23,2.41,0.66c2.97-12.37,8.8-26.97,5.12-39.74
				c-1.54-5.37-4.75-10.07-8.14-14.43c-3.56-4.59-7.19-9.2-11.88-12.67C694.64,119.6,693.39,121.77,694.67,122.72L694.67,122.72z"/>
		</g>
	</g>
	<g>
		<g>
			<path class="st0" d="M676.47,113.57c0.14,3.34,3.54,5.07,5.71,7.24c3.22,3.23,5.88,6.9,8.09,10.88c0.78,1.41,2.94,0.15,2.16-1.26
				c-1.65-2.98-3.54-5.78-5.74-8.39c-1.12-1.33-2.31-2.61-3.57-3.81c-1.24-1.18-4.07-2.76-4.15-4.66
				C678.9,111.96,676.4,111.96,676.47,113.57L676.47,113.57z"/>
		</g>
	</g>
	<g>
		<g>
			<path class="st0" d="M677.1,116.65c14.09,10.84,22.11,30.99,16.2,48.11c-0.53,1.52,1.89,2.18,2.41,0.66
				c6.31-18.3-2.39-39.42-17.35-50.94C677.09,113.51,675.84,115.68,677.1,116.65L677.1,116.65z"/>
		</g>
	</g>
	<g>
		<g>
			<path class="st0" d="M767.33,249.16c4.96-0.32,9.65-1.53,14.16-3.64c-0.61-0.47-1.22-0.94-1.84-1.41
				c-0.74,4.65-3.27,8.47-7.35,10.87c-1.42,0.84-0.18,2.79,1.26,2.16c5.32-2.33,8.72-7.22,9.37-12.95c0.18-1.6-2.32-1.58-2.5,0
				c-0.56,4.89-3.67,8.83-8.13,10.79c0.42,0.72,0.84,1.44,1.26,2.16c4.58-2.69,7.66-7.1,8.49-12.36c0.18-1.11-0.8-1.9-1.84-1.41
				c-4.09,1.91-8.39,3.01-12.89,3.3C765.73,246.77,765.72,249.27,767.33,249.16L767.33,249.16z"/>
		</g>
	</g>
	<g>
		<g>
			<path class="st0" d="M721.89,132.47c8.02,6.95,13.91,15.26,18.33,24.88c4.71,10.25,9.24,20.85,13.14,31.45
				c3.48,9.46,4.13,19.21,0.87,28.84c-3.01,8.89-11.1,15.21-12.17,24.73c-0.53,4.79,6.97,4.75,7.5,0c0.59-5.31,5.36-9.49,7.94-13.92
				c2.41-4.13,4.2-8.72,5.24-13.38c2.28-10.2,0.98-20.22-2.77-29.89c-8.01-20.62-15.61-43.14-32.78-58.01
				C723.56,124.02,718.23,129.3,721.89,132.47L721.89,132.47z"/>
		</g>
	</g>
	<g>
		<g>
			<path class="st0" d="M693.12,126.68c15.97,6.52,18.27,23.76,14.95,38.81c-3.4,15.41-10.57,29.98-9.12,46.13
				c0.19,2.17,1.57,3.55,3.75,3.75c2.28,0.21,4.1-0.54,5.57-2.3c3.09-3.67-2.19-9-5.3-5.3c-0.09,0.03-0.18,0.07-0.27,0.1
				c1.25,1.25,2.5,2.5,3.75,3.75c-1.73-19.23,9.3-36.46,10.52-55.4c1.04-16.17-6.6-30.54-21.86-36.77
				C690.65,117.63,688.7,124.88,693.12,126.68L693.12,126.68z"/>
		</g>
	</g>
	<g>
		<g>
			<path class="st0" d="M703.95,215.38c5.33-2.09,10.08-5,14.27-8.91c3.54-3.3-1.77-8.59-5.3-5.3c-3.2,2.98-6.89,5.38-10.97,6.98
				c-1.9,0.75-3.17,2.51-2.62,4.61C699.81,214.57,702.07,216.12,703.95,215.38L703.95,215.38z"/>
		</g>
	</g>
	<g>
		<g>
			<path class="st0" d="M712.66,201.37c-1.4,1.44-2.84,2.82-4.38,4.1c-0.73,0.61-1.48,1.2-2.26,1.76c-0.43,0.32-0.87,0.62-1.33,0.91
				c-0.89,0.37-0.63,0.87,0.76,1.5c0.45-0.07,1.07-11.41,1.17-12.5c0.45-4.8-7.05-4.77-7.5,0c-0.35,3.79-0.73,7.57-1.06,11.36
				c-0.27,2.98,0.31,5.6,3.23,7.01c5.88,2.84,13.04-5.11,16.67-8.83C721.33,203.21,716.03,197.9,712.66,201.37L712.66,201.37z"/>
		</g>
	</g>
	<g>
		<g>
			<path class="st1" d="M754.08,255.02c5.97-0.05,11.47-1.46,16.74-4.27c-0.42-0.72-0.84-1.44-1.26-2.16
				c-5.96,3.22-12.69,6.78-19.64,4.76c-4.97-1.44-17.57-7.62-13.83-14.18c0.8-1.4-1.36-2.66-2.16-1.26
				c-4.36,7.64,4.82,12.85,10.49,15.79c9.36,4.85,17.67,1.77,26.4-2.95c1.42-0.77,0.16-2.91-1.26-2.16
				c-4.91,2.61-9.91,3.88-15.48,3.93C752.48,252.54,752.47,255.04,754.08,255.02L754.08,255.02z"/>
		</g>
	</g>
	<g>
		<g>
			<path class="st1" d="M729.11,230.92c0.11,5.23-1.01,9.81,1.41,14.73c2.01,4.06,5.32,6.88,9.44,8.62
				c1.48,0.62,2.13-1.79,0.66-2.41c-4.19-1.76-7.41-5.16-8.76-9.54c-1.17-3.79-0.18-7.54-0.26-11.39
				C731.57,229.32,729.07,229.31,729.11,230.92L729.11,230.92z"/>
		</g>
	</g>
	<g>
		<g>
			<path class="st1" d="M702.17,243.93c2.27,1.93,3.26,4.8,5.02,7.14c1.35,1.81,2.91,3.45,4.66,4.88c3.55,2.9,7.64,4.77,12.09,5.78
				c0.11-0.82,0.22-1.64,0.33-2.46c-14.81-0.24-22.01-17.84-18.6-30.26c0.43-1.55-1.98-2.22-2.41-0.66
				c-3.85,14.03,4.58,33.16,21.01,33.42c1.39,0.02,1.73-2.14,0.33-2.46c-4.97-1.13-9.49-3.42-13.11-7.06
				c-3.01-3.03-4.34-7.38-7.55-10.1C702.72,241.13,700.94,242.89,702.17,243.93L702.17,243.93z"/>
		</g>
	</g>
	<g>
		<g>
			<path class="st1" d="M738.66,197.19c-8.03,3.12-13.9,8.05-19.76,14.25c-6.99,7.41-13.98,14.83-20.97,22.24
				c-1.1,1.17,0.66,2.94,1.77,1.77c6.12-6.49,12.23-12.97,18.35-19.46c6.4-6.79,12.4-12.93,21.28-16.39
				C740.81,199.03,740.16,196.61,738.66,197.19L738.66,197.19z"/>
		</g>
	</g>
	<g>
		<g>
			<path class="st1" d="M723.93,199.83c-5.36,10.14-17.95,11.74-26.69,17.84c-1.31,0.91-0.06,3.08,1.26,2.16
				c9.19-6.41,21.94-8.05,27.59-18.74C726.84,199.67,724.68,198.41,723.93,199.83L723.93,199.83z"/>
		</g>
	</g>
	<g>
		<g>
			<path class="st1" d="M696.81,190.29c-0.22,5.31-0.39,10.62-0.48,15.93c-0.06,3.14-1.03,7.77,0.31,10.74
				c2.38,5.28,10.54,0.63,13.72-1.43c1.35-0.87,0.17-2.91-1.26-2.16c-1.43,0.76-2.87,1.51-4.3,2.27c0.42,0.72,0.84,1.44,1.26,2.16
				c14.1-9.93,24.37-22.97,33.85-37.21c0.89-1.34-1.27-2.6-2.16-1.26c-9.23,13.86-19.22,26.64-32.95,36.31
				c-1.3,0.92-0.18,2.92,1.26,2.16c1.43-0.76,2.87-1.51,4.3-2.27c-0.42-0.72-0.84-1.44-1.26-2.16c-1.62,1.05-4.97,3.5-6.93,3.12
				c-4.62-0.9-3.41-5.89-3.36-9.28c0.09-5.64,0.27-11.28,0.5-16.92C699.38,188.68,696.88,188.68,696.81,190.29L696.81,190.29z"/>
		</g>
	</g>
	<g>
		<g>
			<path class="st3" d="M759.82,228.31c-0.84,2.18-3.65,3.22-5.27,4.81c-1.62,1.6-2.84,3.55-3.87,5.56
				c-1.01,1.97-3.88,6.4-1.48,8.46c1,0.86,2.89,0.67,4.09,0.7c3.87,0.1,7.76-0.05,11.62-0.35c6.56-0.5,13.05-1.55,19.46-3.02
				c-0.47-0.61-0.94-1.22-1.41-1.84c-5.67,9.52-14.23,16.56-24.69,20.23c-1.51,0.53-0.86,2.95,0.66,2.41
				c11.08-3.89,20.17-11.29,26.18-21.38c0.58-0.97-0.37-2.07-1.41-1.84c-5.56,1.27-11.18,2.24-16.86,2.76
				c-1.93,0.18-3.86,0.31-5.8,0.4c-1.64,0.08-6.36,0.96-7.75,0.11c-6.5-3.96,7.66-13.05,8.95-16.37
				C762.81,227.47,760.39,226.82,759.82,228.31L759.82,228.31z"/>
		</g>
	</g>
	<g>
		<g>
			<path class="st3" d="M780.17,248c-1.52,2.78-3.61,4.47-6.4,5.88c-1.81,0.92-3.29,1.82-3.96,3.82c-0.35,1.06,0.93,1.94,1.84,1.41
				c5.34-3.12,9.5-7.73,11.99-13.39c-0.76-0.32-1.52-0.64-2.28-0.96c-0.4,2.7-0.33,5.17-2.39,7.13c-1.84,1.75-3.68,3.5-5.52,5.25
				c-1.17,1.11,0.6,2.88,1.77,1.77c2.21-2.1,4.45-4.17,6.63-6.3c1.82-1.77,1.57-4.76,1.93-7.19c0.18-1.25-1.66-2.39-2.28-0.96
				c-2.33,5.29-6.09,9.58-11.09,12.5c0.61,0.47,1.22,0.94,1.84,1.41c0.68-2.04,4.19-2.87,5.8-4.07c1.82-1.35,3.22-3.06,4.3-5.04
				C783.1,247.85,780.94,246.58,780.17,248L780.17,248z"/>
		</g>
	</g>
	<g>
		<g>
			<path class="st3" d="M714.5,240.96c-0.69,6.14,5.39,11.43,9.75,14.84c5.22,4.08,11.18,6.78,17.63,8.22
				c1.57,0.35,2.24-2.06,0.66-2.41c-5.11-1.14-9.97-3.06-14.32-6c-4.45-3.01-11.9-8.7-11.23-14.66
				C717.18,239.37,714.68,239.38,714.5,240.96L714.5,240.96z"/>
		</g>
	</g>
	<g>
		<g>
			<path class="st3" d="M748.06,263.41c-3.32-1.04-6.64-2.08-9.97-3.13c-3.25-1.02-6.94-1.8-8.81-4.94
				c-0.82-1.38-2.99-0.12-2.16,1.26c1.57,2.64,3.99,3.96,6.82,4.97c4.42,1.58,8.97,2.84,13.45,4.25
				C748.94,266.31,749.6,263.89,748.06,263.41L748.06,263.41z"/>
		</g>
	</g>
	<g>
		<g>
			<path class="st3" d="M733.63,260.63c14.5,3.25,29.03,4.95,42.12-3.49c1.35-0.87,0.1-3.03-1.26-2.16
				c-12.53,8.07-26.34,6.34-40.2,3.23C732.72,257.87,732.06,260.28,733.63,260.63L733.63,260.63z"/>
		</g>
	</g>
	<g>
		<g>
			<path class="st3" d="M763.19,262.77c3.58,0.23,6.45-1.42,9.03-3.79c3.76-3.45,6.95-7.65,10.31-11.48c1.06-1.2-0.7-2.98-1.77-1.77
				c-2.65,3.02-5.26,6.08-7.96,9.06c-2.57,2.85-5.5,5.75-9.62,5.48C761.58,260.17,761.59,262.67,763.19,262.77L763.19,262.77z"/>
		</g>
	</g>
	<g>
		<g>
			<path class="st3" d="M738.49,268.37c1.28-0.49,2.43-1.22,3.34-2.26c0.72-0.81,0.23-2.1-0.88-2.13c-0.8-0.03-1.59-0.05-2.39-0.08
				c-1.61-0.06-1.61,2.45,0,2.5c0.8,0.03,1.59,0.05,2.39,0.08c-0.29-0.71-0.59-1.42-0.88-2.13c-0.62,0.7-1.36,1.28-2.24,1.62
				c-0.63,0.24-1.06,0.84-0.87,1.54C737.12,268.1,737.86,268.62,738.49,268.37L738.49,268.37z"/>
		</g>
	</g>
	<g>
		<g>
			<path class="st3" d="M735.17,262.65c2.44,1.22,4.87,2.44,7.31,3.66c1.43,0.72,2.7-1.44,1.26-2.16c-2.43-1.22-4.87-2.44-7.31-3.66
				C734.99,259.77,733.73,261.93,735.17,262.65L735.17,262.65z"/>
		</g>
	</g>
	<g>
		<g>
			<path class="st3" d="M733.61,261.45c2.24,2.13,4.73,3.93,7.46,5.36c1.42,0.75,2.69-1.41,1.26-2.16
				c-2.55-1.34-4.87-2.99-6.96-4.97C734.21,258.57,732.44,260.33,733.61,261.45L733.61,261.45z"/>
		</g>
	</g>
	<g>
		<g>
			<path class="st3" d="M728.78,258.47c3.57,2.94,7.32,5.64,11.27,8.06c1.38,0.84,2.63-1.32,1.26-2.16
				c-3.76-2.31-7.35-4.86-10.76-7.67C729.31,255.69,727.54,257.45,728.78,258.47L728.78,258.47z"/>
		</g>
	</g>
	<g>
		<g>
			<path class="st3" d="M687.22,130.49c-1.76-6.68-5.46-12.49-10.82-16.85c-1.24-1.01-3.02,0.75-1.77,1.77
				c5.04,4.11,8.52,9.46,10.17,15.75C685.21,132.71,687.63,132.05,687.22,130.49L687.22,130.49z"/>
		</g>
	</g>
	<g>
		<g>
			<path class="st3" d="M676.7,116.04c2.56,4.91,7.22,7.71,9.16,13.2c2.15,6.09,1.84,12.68,1.59,19.03c-0.06,1.61,2.44,1.61,2.5,0
				c0.27-6.58,0.52-13.38-1.68-19.7c-2-5.75-6.73-8.67-9.41-13.79C678.12,113.35,675.96,114.61,676.7,116.04L676.7,116.04z"/>
		</g>
	</g>
	<g>
		<g>
			<path class="st3" d="M674.43,112.5c1.35,3.27,2.35,6.63,3.04,10.1c0.31,1.58,2.72,0.91,2.41-0.66c-0.68-3.47-1.69-6.83-3.04-10.1
				C676.23,110.37,673.82,111.01,674.43,112.5L674.43,112.5z"/>
		</g>
	</g>
	<g>
		<g>
			<path class="st3" d="M675.89,112.36c1.83,4.11,3.66,8.22,5.49,12.32c0.65,1.47,2.81,0.2,2.16-1.26
				c-1.83-4.11-3.66-8.22-5.49-12.32C677.39,109.63,675.24,110.9,675.89,112.36L675.89,112.36z"/>
		</g>
	</g>
	<g>
		<g>
			<path class="st3" d="M730.16,151.93c0.99-9.23-5.33-17.75-9.33-25.62c-0.65,0.5-1.31,1.01-1.96,1.51c1.62,1.9,2.5,3.77,3.04,6.16
				c0.36,1.57,2.77,0.9,2.41-0.66c-0.65-2.87-1.79-5.03-3.69-7.27c-0.96-1.13-2.58,0.31-1.96,1.51c3.76,7.39,9.92,15.77,8.99,24.36
				C727.49,153.53,729.99,153.51,730.16,151.93L730.16,151.93z"/>
		</g>
	</g>
	<g>
		<g>
			<path class="st3" d="M722.77,134.25c-0.19,1.28-0.04,2.42,0.59,3.57c0.63,1.16,2.24,0.54,2.33-0.63c0.13-1.83-0.83-3.54-2.4-4.46
				c-1.14-0.66-2.24,0.63-1.71,1.71c0.72,1.48,1.45,2.96,2.17,4.44c0.71,1.45,2.86,0.18,2.16-1.26c-0.72-1.48-1.45-2.96-2.17-4.44
				c-0.57,0.57-1.14,1.14-1.71,1.71c0.86,0.5,1.24,1.32,1.16,2.3c0.78-0.21,1.55-0.42,2.33-0.63c-0.28-0.51-0.42-1.06-0.34-1.64
				c0.1-0.67-0.17-1.34-0.87-1.54C723.71,133.21,722.87,133.59,722.77,134.25L722.77,134.25z"/>
		</g>
	</g>
	<g>
		<g>
			<path class="st3" d="M721.81,126.09c7.85,3.02,13.1,9.66,17.91,16.25c4.92,6.74,9.35,13.81,13.39,21.11
				c0.78,1.41,2.94,0.15,2.16-1.26c-4.75-8.6-10.04-16.91-16.06-24.69c-4.56-5.9-9.66-11.11-16.73-13.83
				C720.97,123.1,720.32,125.52,721.81,126.09L721.81,126.09z"/>
		</g>
	</g>
	<g>
		<g>
			<path class="st3" d="M720.9,124.99c0.01,1.09-0.23,2.12-0.73,3.08c-0.54,1.33,1.6,2.16,2.28,0.96c0.66-1.15,1.15-2.25,1.57-3.5
				c0.52-1.54-1.85-2.15-2.41-0.66c-0.14,0.37-0.28,0.74-0.42,1.11c-0.19,0.51,0.13,1.16,0.57,1.41c2.84,1.61,7.42,1.57,8.93,4.83
				c0.57-0.57,1.14-1.14,1.71-1.71c-2.29-1.54-4.62-2.96-7.02-4.3c-1.41-0.78-2.64,1.32-1.26,2.16c7.56,4.6,13.75,10.72,18.41,18.23
				c0.85,1.36,3.01,0.11,2.16-1.26c-4.89-7.87-11.39-14.32-19.31-19.13c-0.42,0.72-0.84,1.44-1.26,2.16
				c2.41,1.34,4.74,2.76,7.02,4.3c1.14,0.76,2.19-0.68,1.71-1.71c-1.89-4.08-6.34-3.75-9.83-5.73c0.19,0.47,0.38,0.94,0.57,1.41
				c0.14-0.37,0.28-0.74,0.42-1.11c-0.8-0.22-1.61-0.44-2.41-0.66c-0.3,1.04-0.74,2-1.32,2.9c0.76,0.32,1.52,0.64,2.28,0.96
				c0.53-1.29,0.74-2.37,0.82-3.74C723.5,123.38,720.99,123.39,720.9,124.99L720.9,124.99z"/>
		</g>
	</g>
</g>
<text transform="matrix(1 0 0 1 235.6504 136.1895)" class="st4 st5 st6">Forest Inferno</text>
<ellipse class="st7" cx="320.24" cy="66.65" rx="48.76" ry="48.65"/>
<g>
	<g>
		<g>
			<path class="st0" d="M301.63,18.5c6.91,6.96-2.49,19.15-5.99,25.86c-3.3,6.32-8.09,13.3-8.1,20.7c-0.01,7.2,5.23,12.82,8.78,18.6
				c4.46,7.24,7.96,15,11.45,22.73c0.79,1.76,3.38,0.23,2.59-1.51c-3.74-8.28-7.49-16.61-12.42-24.27
				c-2.3-3.57-5.22-6.99-6.61-11.05c-1.88-5.5,0.22-10.62,2.65-15.56c3.69-7.48,8.26-14.63,11.49-22.32
				c2.21-5.26,2.53-11.02-1.73-15.31C302.39,15.01,300.27,17.13,301.63,18.5L301.63,18.5z"/>
		</g>
	</g>
	<g>
		<g>
			<path class="st0" d="M304.19,16.03c0.29,1.93,3.22,4.79,4.31,6.48c1.39,2.17,2.7,4.44,3.57,6.88c1.97,5.51,0.88,10.28-1.84,15.26
				c-1.81,3.3-3.96,6.48-4.88,10.18c-0.99,3.97-0.51,8.05,0.11,12.04c2.61,16.83,2.06,36.4,14.58,49.54
				c0.61-0.79,1.21-1.57,1.82-2.36c-4.6-3.05-8.49-6.66-11.83-11.06c-1.15-1.52-3.76-0.02-2.59,1.51c3.65,4.8,7.87,8.8,12.9,12.13
				c1.45,0.96,2.96-1.15,1.82-2.36c-8.77-9.21-10.46-21.87-11.83-33.98c-0.67-5.88-1.92-11.74-2.42-17.62
				c-0.61-7.14,2.58-11.88,5.67-17.9c4.26-8.32,2.42-16.16-2.48-23.79c-1.37-2.13-4.01-7.59-7.1-7.67c-2.13-0.06-2.95,1.73-2.69,3.5
				C301.58,18.74,304.47,17.93,304.19,16.03L304.19,16.03z"/>
		</g>
	</g>
	<g>
		<g>
			<path class="st0" d="M307.44,28.96c0.58-6.64-1.24-13.07-5.25-18.4c-0.68,0.68-1.37,1.37-2.05,2.05
				c3.58,2.5,5.95,5.94,7.11,10.13c0.51,1.86,3.41,1.07,2.89-0.8c-1.37-4.98-4.25-8.98-8.49-11.93c-1.19-0.83-2.95,0.86-2.05,2.05
				c3.74,4.97,5.39,10.68,4.84,16.88C304.27,30.89,307.27,30.88,307.44,28.96L307.44,28.96z"/>
		</g>
	</g>
	<g>
		<g>
			<path class="st0" d="M300.19,12.77c3.06,4.89,7.12,14.19,2.95,19.55c-1.17,1.51,0.94,3.64,2.12,2.12
				c5.17-6.65,1.5-16.83-2.48-23.19C301.76,9.63,299.16,11.13,300.19,12.77L300.19,12.77z"/>
		</g>
	</g>
	<g>
		<g>
			<path class="st0" d="M300.42,13.18c1.17,4.7,2.44,9.56,2.21,14.45c-0.24,5.19-2.48,9.69-4.91,14.17
				c-0.92,1.7,1.67,3.21,2.59,1.51c2.36-4.36,4.65-8.83,5.18-13.83c0.62-5.79-0.79-11.53-2.18-17.1
				C302.84,10.51,299.95,11.3,300.42,13.18L300.42,13.18z"/>
		</g>
	</g>
	<g>
		<g>
			<path class="st0" d="M319.92,27.88c5.38,7.82,3.82,16.9,1.6,25.54c-2.03,7.89-4.21,15.73-4.93,23.88
				c-0.65,7.26-0.12,14.71,2.38,21.6c1.6,4.39,5.27,12.66,10.26,14.22c4.56,1.42,11.83-4,15.39-6.24c5.32-3.34,9.99-7.6,12.57-13.43
				c5.06-11.44,4.51-26.36-3.69-36.15c-0.9-1.07-2.49-0.13-2.56,1.06c-0.37,6.71-0.84,24.59-10.87,24.84
				c-9.08,0.23-3.38-18.39-2.65-23.46c0.84-5.78,1.09-11.76-1.22-17.26c-2.76-6.55-8.48-11.16-12.69-16.72
				c-1.15-1.52-3.76-0.03-2.59,1.51c6.44,8.51,14.47,14.6,14.1,26.3c-0.17,5.48-1.53,10.84-2.32,16.25
				c-0.54,3.72-1.57,8.53,0.04,12.12c2.3,5.16,9.1,5.16,13.05,2.02c7.28-5.78,7.67-17.17,8.14-25.61c-0.85,0.35-1.71,0.71-2.56,1.06
				c8.31,9.91,8.16,28.06-0.13,38.05c-3.74,4.5-8.92,7.5-14.05,10.14c-3.77,1.94-7.2,3.37-10.37-0.6c-2.14-2.68-3.78-5.68-4.97-8.9
				c-4.86-13.21-1.8-27.39,1.66-40.53c2.73-10.37,5.57-21.65-1.01-31.2C321.42,24.78,318.82,26.28,319.92,27.88L319.92,27.88z"/>
		</g>
	</g>
	<g>
		<g>
			<path class="st0" d="M303.08,31.62c-0.63,5.19-2.32,10.2-4.88,14.75c-2.27,4.03-4.93,7.79-6.51,12.17
				c-2.88,7.96-0.94,16.44,5.95,21.5c2.53,1.86,6.82,0.5,8.21-2.15c2.98-5.69,1.37-11.14,0.97-17.22c-0.16-2.5-1.01-7.27,0-9.6
				c0.88-2.02,2.84-3.17,3.57-5.56c2.25-7.41-9.33-10.57-11.57-3.19c-0.39,1.27-2.59,2.84-3.18,4.4c-0.97,2.52-0.93,5.53-0.96,8.19
				c-0.04,2.88,0.1,5.77,0.39,8.63c0.22,2.11,1.49,6.27,0.42,8.29c2.74-0.72,5.47-1.44,8.21-2.15c-4.98-3.65,2.57-13.26,4.46-16.54
				c3.88-6.74,5.99-13.82,6.92-21.52C316,23.97,303.99,24.03,303.08,31.62L303.08,31.62z"/>
		</g>
	</g>
	<g>
		<g>
			<path class="st0" d="M324.17,46.11c-2.71,16.19-7.77,32.58-5.49,49.15c0.87,6.32,4.39,12.74,11.6,12.86
				c3.3,0.05,6.3-1.22,8.93-3.12c2.55-1.84,4.65-5.26,7.7-6.17c-2.26-2.94-4.52-5.88-6.78-8.81c-2.22,4.67-5.61,7.48-10.68,8.61
				c2.46,2.46,4.92,4.92,7.38,7.38c-0.3,1.67-0.67,1.32,1.62,0.16c1.06-0.53,2.03-1.09,2.9-1.92c2.22-2.12,3.28-5.14,2.69-8.19
				c-0.57-2.91-2.52-5.43-4.99-7.01c-1.87-1.19-6.02-1.65-5.29-4.61c-3.66,0.48-7.31,0.96-10.97,1.43
				c2.7,5.19,3.81,10.42,10.32,12.03c5.72,1.42,10.97-1.03,14.28-5.69c2.06-2.91,0.09-8.28-3.59-8.81c-1.82-0.26-3.37-0.64-5.1-1.24
				c-5.08-1.77-9.27,4.5-6.78,8.81c2.78,4.81,8.26,6.94,13.66,5.71c6.01-1.37,9.62-6.63,12.2-11.8c-3.66-1.54-7.31-3.08-10.97-4.62
				c-0.5,2.33-1.07,4.63-1.85,6.88c-0.38,1.09-0.81,3.41-1.67,4.03c-1.06,0.76,0.79,0.2-0.61-0.01c-3.83-0.57-5.81-6.31-6.8-9.34
				c-3-9.21-0.05-19.51,1.15-28.89c0.47-3.64-4.25-7.13-7.6-5.79c-0.55,0.22-1.11,0.44-1.66,0.67c-7.08,2.84-3.99,14.45,3.19,11.57
				c0.55-0.22,1.11-0.44,1.66-0.67c-2.53-1.93-5.06-3.86-7.6-5.79c-1.92,14.91-5.73,31.86,5.69,44.24
				c4.33,4.7,11.78,8.02,17.98,5.04c6.27-3.02,8.37-12.65,9.68-18.76c1.35-6.3-7.77-11.02-10.97-4.62
				c-0.52,1.03-4.23,7.68-5.14,6.09c-2.26,2.94-4.52,5.88-6.78,8.81c1.74,0.6,3.28,0.98,5.1,1.24c-1.2-2.94-2.39-5.88-3.59-8.81
				c-1.07,1.51-3.45-5.53-3.88-6.34c-2.37-4.57-9.76-3.46-10.97,1.43c-1.54,6.25,0.68,12.7,6.39,16.01c0.6,0.36,1.24,0.66,1.9,0.91
				c1.72,1.26,2.51,0.41,2.38-2.56c-0.56-0.19-2.24,0.86-2.8,1.17c-2.41,1.31-4.29,3.26-4.8,6.04c-0.83,4.56,2.67,8.42,7.38,7.38
				c7.82-1.73,14.41-6.88,17.85-14.12c2.13-4.49-1.41-10.4-6.78-8.81c-4.63,1.37-7.11,4.39-10.67,7.35
				c-2.73,2.26-2.32,1.06-2.69-2.03c-0.34-2.78-0.32-5.64-0.22-8.43c0.42-11.79,3.66-23.27,5.6-34.85
				C337,41.75,325.44,38.5,324.17,46.11L324.17,46.11z"/>
		</g>
	</g>
	<g>
		<g>
			<path class="st0" d="M305.16,24.81c0.49,1.65,0.97,3.3,1.46,4.95c0.46,1.55,2.11,2.53,3.69,2.1c1.55-0.42,2.56-2.13,2.1-3.69
				c-0.49-1.65-0.97-3.3-1.46-4.95c-0.46-1.55-2.11-2.53-3.69-2.1C305.71,21.55,304.7,23.25,305.16,24.81L305.16,24.81z"/>
		</g>
	</g>
	<g>
		<g>
			<path class="st0" d="M298.85,77.34c0.37,2.49,0.74,4.98,1.11,7.47c0.49,3.31,6.31,2.56,5.89-0.8c-0.38-3.04-1.34-5.36-3.68-7.42
				c-2.1-1.84-6.02-0.12-5.01,2.92c2.69,8.11,5.45,16.23,9.46,23.8c2.46,4.65,5.8,13.02,12.22,11.87c2.5-0.45,2.96-4.38,0.72-5.48
				c-7.88-3.88-9.29-10.78-9.01-18.96c0.26-7.39-0.11-14.61-1.23-21.92c-0.58-3.8-6.37-2.19-5.79,1.6
				c0.84,5.46,1.24,10.97,1.15,16.49c-0.07,4.07-0.55,8.15,0.08,12.2c1.08,6.96,5.47,12.67,11.77,15.77
				c0.24-1.83,0.48-3.66,0.72-5.48c-1.32,0.24-6.96-12.05-7.66-13.59c-2.65-5.79-4.64-11.86-6.64-17.89
				c-1.67,0.97-3.34,1.95-5.01,2.92c1.1,0.73,1.75,1.79,1.93,3.18c1.96-0.27,3.93-0.53,5.89-0.8c-0.37-2.49-0.74-4.98-1.11-7.47
				C304.06,71.94,298.28,73.56,298.85,77.34L298.85,77.34z"/>
		</g>
	</g>
	<g>
		<g>
			<path class="st0" d="M324.34,37.48c0.69,2.74,0.98,6.67,3.05,8.78c2.18,2.22,5.39,1.72,7.13-0.67c0.76-1.04,0.43-2.79-0.47-3.64
				c-2.62-2.48-4.5-5.42-5.56-8.87c-1.83,0.77-3.66,1.54-5.48,2.31c1.28,2.56,2.2,5.23,2.84,8.02c0.87,3.76,6.65,2.17,5.79-1.6
				c-0.76-3.29-1.93-6.43-3.44-9.46c-1.52-3.04-6.48-0.92-5.48,2.31c1.36,4.41,3.75,8.34,7.11,11.52c-0.16-1.21-0.31-2.42-0.47-3.64
				c0.77-0.19,1.55-0.38,2.32-0.56c-0.04-0.18-0.08-0.35-0.13-0.53c0.03-0.48-0.34-1.35-0.45-1.78c-0.32-1.27-0.64-2.54-0.96-3.81
				C329.19,32.14,323.4,33.73,324.34,37.48L324.34,37.48z"/>
		</g>
	</g>
	<g>
		<g>
			<path class="st0" d="M357.32,79.04c-1.21-4.55,0.67-9.21-1.06-13.74c-1.16-3.05-5.83-2.77-5.89,0.8
				c-0.05,2.64,0.27,5.21,1.08,7.72c0.38,1.19,1.19,2.65,1.19,3.92c-0.01,1.77-1.4,3.34-2.44,4.62c-2.41,2.97,1.81,7.24,4.24,4.24
				c2.09-2.57,4.22-5.39,4.2-8.86c-0.03-4.02-2.34-7.49-2.27-11.64c-1.96,0.27-3.93,0.53-5.89,0.8c1.66,4.37-0.15,9.21,1.06,13.74
				C352.52,84.36,358.31,82.78,357.32,79.04L357.32,79.04z"/>
		</g>
	</g>
	<g>
		<g>
			<path class="st0" d="M297.41,9.86c4.57,6.06,4.91,13.6,4.94,20.93c0.02,7.43-4,14.4-6.77,21.14c-0.73,1.78,2.17,2.56,2.89,0.8
				c3.19-7.77,7.01-14.91,6.85-23.46c-0.14-7.38-0.74-14.84-5.32-20.92C298.85,6.82,296.24,8.32,297.41,9.86L297.41,9.86z"/>
		</g>
	</g>
	<g>
		<g>
			<path class="st0" d="M298.08,10.8c9.29,4.83,7.61,18.34,7.97,27.15c0.08,1.92,3.08,1.93,3,0c-0.41-10.02,1.09-24.25-9.46-29.74
				C297.88,7.32,296.36,9.91,298.08,10.8L298.08,10.8z"/>
		</g>
	</g>
	<g>
		<g>
			<path class="st0" d="M312.76,34.39c-3.74,12.03-6.35,24.35-7.71,36.87c-0.67,6.18-1.06,12.41-1.07,18.63
				c-0.01,4.9,0.39,9.55,3.14,13.73c1.06,1.61,3.66,0.1,2.59-1.51c-3.13-4.75-2.82-10.49-2.66-15.95c0.16-5.6,0.56-11.19,1.22-16.75
				c1.38-11.62,3.92-23.05,7.39-34.22C316.23,33.34,313.33,32.55,312.76,34.39L312.76,34.39z"/>
		</g>
	</g>
	<g>
		<g>
			<path class="st0" d="M314.74,112.15c3.11,2.64,6.46,4.6,10.28,6.02c1.38,0.51,2.6-1.57,1.46-2.51
				c-17.84-14.65-17.72-38.98-17.03-60.08c0.06-1.93-2.94-1.93-3,0c-0.71,21.85-0.54,47.05,17.91,62.2
				c0.49-0.84,0.97-1.67,1.46-2.51c-3.37-1.25-6.23-2.93-8.96-5.25C315.39,108.78,313.26,110.89,314.74,112.15L314.74,112.15z"/>
		</g>
	</g>
	<g>
		<g>
			<path class="st0" d="M316.76,22.12c2.56,3.32,4.47,6.96,5.68,10.98c0.55,1.84,3.45,1.06,2.89-0.8
				c-1.28-4.25-3.26-8.18-5.98-11.69C318.19,19.1,315.58,20.59,316.76,22.12L316.76,22.12z"/>
		</g>
	</g>
	<g>
		<g>
			<path class="st0" d="M316.95,21.75c3.86,2.32,6.11,6.09,8.54,9.75c2.63,3.94,6.46,8.16,6.41,13.12c-0.02,1.93,2.98,1.93,3,0
				c0.05-5.68-3.81-10.12-6.82-14.64c-2.74-4.11-5.29-8.22-9.62-10.82C316.81,18.16,315.3,20.76,316.95,21.75L316.95,21.75z"/>
		</g>
	</g>
	<g>
		<g>
			<path class="st0" d="M315.49,21.39c4.16,5.67,6.45,12.4,6.04,19.48c-0.42,7.28-4.16,13.9-5.45,21.04
				c-2.19,12.11-0.52,24.39,4.37,35.63c0.77,1.77,3.35,0.24,2.59-1.51c-6.05-13.89-6.3-29-1.35-43.25
				c3.99-11.48,3.81-22.8-3.61-32.91C316.95,18.34,314.35,19.83,315.49,21.39L315.49,21.39z"/>
		</g>
	</g>
	<g>
		<g>
			<path class="st0" d="M320.43,54.91c-1.08,2.68-1.87,5.42-2.38,8.27c0.98,0.13,1.96,0.27,2.95,0.4c-0.25-2.65-0.67-5.95,1.84-7.73
				c-0.73-0.56-1.47-1.13-2.2-1.69c-0.85,4.66-1.27,9.34-1.24,14.08c0.01,1.93,3.01,1.93,3,0c-0.03-4.47,0.33-8.88,1.13-13.28
				c0.21-1.15-1.03-2.52-2.2-1.69c-3.51,2.5-3.7,6.32-3.32,10.32c0.15,1.54,2.62,2.2,2.95,0.4c0.51-2.85,1.3-5.58,2.38-8.27
				C324.04,53.91,321.14,53.14,320.43,54.91L320.43,54.91z"/>
		</g>
	</g>
	<g>
		<g>
			<path class="st0" d="M315.08,114.23c2.17,1.55,4.59,3.04,7.38,2.74c1.9-0.21,1.92-3.21,0-3c-2.27,0.25-4.1-1.07-5.86-2.33
				C315.02,110.51,313.52,113.11,315.08,114.23L315.08,114.23z"/>
		</g>
	</g>
	<g>
		<g>
			<path class="st0" d="M355.01,64.74c1.93,0,1.93-3,0-3C353.08,61.74,353.07,64.74,355.01,64.74L355.01,64.74z"/>
		</g>
	</g>
	<g>
		<g>
			<path class="st0" d="M331.17,81.57c4.67,6.58,13.89,6.45,18.23-0.42c1.03-1.64-1.56-3.14-2.59-1.51
				c-3.07,4.86-9.68,5.16-13.05,0.42C332.66,78.5,330.05,79.99,331.17,81.57L331.17,81.57z"/>
		</g>
	</g>
	<g>
		<g>
			<path class="st0" d="M347.99,78.67c-2.9,1.72-7.57,3.91-11.08,3.05c-4.23-1.04-4.22-6.8-4.95-10.25
				c-0.96,0.27-1.93,0.53-2.89,0.8c1.38,3.77,3.36,10.01,7.19,11.95c3.85,1.95,9.24-0.59,11.93-3.39c3.65-3.79,6.19-11.2,6.91-16.31
				c0.68-4.86-0.59-9.67-5.4-11.71c-1.31-0.56-2.84,0.63-2.05,2.05c5.61,10.13,1.25,21.11-4.35,30.17
				c-1.02,1.65,1.58,3.16,2.59,1.51c6.21-10.05,10.5-22.08,4.35-33.2c-0.68,0.68-1.37,1.37-2.05,2.05
				c7.92,3.37,2.42,16.81-1.03,21.95c-1.92,2.87-6.06,5.43-9.38,3.85c-2.96-1.4-4.82-6.99-5.82-9.74c-0.66-1.8-3.3-1.11-2.89,0.8
				c0.87,4.11,0.83,10.75,5.73,12.16c4.82,1.39,10.61-0.73,14.7-3.17C351.16,80.28,349.66,77.68,347.99,78.67L347.99,78.67z"/>
		</g>
	</g>
</g>
<g>
	<g>
		<path class="st8" d="M303.87,20.09c0.61,5.06,1.32,10.3,0.39,15.37c-0.83,4.53-3.17,8.27-5.63,12.05
			c-3.99,6.13-7.94,12.52-6.18,20.13c0.8,3.45,2.58,6.57,4.23,9.67c2.35,4.43,4.15,9.02,6,13.68c2.77,6.95,6.19,13.42,11.09,19.11
			c1.04,1.21,2.8-0.11,2.51-1.46c-0.77-3.51-2.8-6.32-4.43-9.47c-2.08-4.02-3.73-8.23-5.07-12.55c-2.6-8.35-4.75-17.75-4.83-26.51
			c-0.08-8.28,5.07-15.3,6.12-23.41c0.92-7.11-0.31-14-3.15-20.53c-0.68-1.56-3.27-0.45-2.74,1.16c1.97,5.98,3.73,11.86,3.51,18.22
			c-0.06,1.93,2.94,1.93,3,0c0.22-6.63-1.57-12.77-3.62-19.02c-0.91,0.39-1.83,0.77-2.74,1.16c3.71,8.54,3.96,17.77,0.78,26.5
			c-2.75,7.56-4.73,13.17-3.74,21.39c0.9,7.38,2.29,14.74,4.5,21.84c1.07,3.45,2.35,6.84,3.85,10.13c1.8,3.94,4.73,7.65,5.65,11.89
			c0.84-0.49,1.67-0.97,2.51-1.46c-5.77-6.7-8.94-14.43-12.17-22.55c-2.71-6.81-8.62-14.04-8.76-21.5
			c-0.17-8.55,7.32-14.97,10.54-22.34c2.99-6.84,2.24-14.29,1.36-21.5C306.64,18.2,303.64,18.17,303.87,20.09L303.87,20.09z"/>
	</g>
</g>
<g>
	<g>
		<path class="st8" d="M299.5,50.41c-3.83,10.25-6.41,23.82,1.73,32.49c1.01,1.08,2.96-0.03,2.51-1.46
			c-1.29-4.01-2.17-8.07-2.41-12.29c-0.18-3.19,0.39-6.37-0.83-9.38c-0.42-1.05-2.14-1.67-2.74-0.36c-1.37,3-2.1,5.85-2.3,9.14
			c0.98-0.13,1.96-0.27,2.95-0.4c-4.21-11.35,7.48-20.21,9.6-30.68c0.85-4.2-0.08-8.59-0.38-12.81c-0.26-3.69-0.82-6.89-3.27-9.76
			c-1.11-1.29-3.27,0.39-2.36,1.82c3.57,5.57,7.52,11.98,5.9,18.88c-1.45,6.16-5.42,12.26-8.44,17.77
			c-0.93,1.69,1.66,3.21,2.59,1.51c3.39-6.19,8.25-13.37,9.12-20.55c0.85-7.04-2.94-13.45-6.58-19.14
			c-0.79,0.61-1.57,1.21-2.36,1.82c3.12,3.65,2.42,9.48,2.94,14c0.66,5.77-1.43,10.5-4.26,15.41c-3.98,6.91-8.42,14.38-5.4,22.52
			c0.59,1.58,2.84,1.34,2.95-0.4c0.18-2.92,0.67-4.96,1.89-7.62c-0.91-0.12-1.83-0.24-2.74-0.36c1.43,3.54,0.57,8.26,1.04,12.02
			c0.42,3.3,1.18,6.48,2.2,9.65c0.84-0.49,1.67-0.97,2.51-1.46c-7.28-7.75-4.34-20.51-0.96-29.57
			C303.07,49.39,300.17,48.61,299.5,50.41L299.5,50.41z"/>
	</g>
</g>
<g>
	<g>
		<path class="st8" d="M320.75,28.58c4.96,7.01,7.3,15.28,4.24,23.57c-2.2,5.98-5.32,11.24-6.05,17.71
			c-1.31,11.55,3.12,23.17,11.61,31.05c1.41,1.31,3.54-0.81,2.12-2.12c-10.13-9.39-13.69-24.13-8.59-37.04
			c2.22-5.63,5.44-10.86,5.46-17.11c0.02-6.32-2.61-12.49-6.2-17.57C322.23,25.5,319.63,26.99,320.75,28.58L320.75,28.58z"/>
	</g>
</g>
<g>
	<g>
		<path class="st8" d="M322.41,30.38c4.5,4.15,5.61,10.07,6.54,15.86c1.19,7.42,0.83,13.66-0.5,21.03
			c-1.1,6.11-1.07,12.38-1.31,18.57c-0.17,4.54-0.43,9.05,2.43,12.85c1.14,1.53,3.75,0.03,2.59-1.51
			c-3.7-4.94-1.95-13.17-1.71-18.97c0.29-7.1,2.25-13.94,2.48-21.01c0.3-9.3-1.2-22.31-8.39-28.95
			C323.11,26.95,320.99,29.06,322.41,30.38L322.41,30.38z"/>
	</g>
</g>
<g>
	<g>
		<path class="st8" d="M328.24,49.37c-1.34,8.92-2.74,17.84-4.02,26.78c-0.84,5.9-1.42,11.75,1.88,17.01
			c0.77,1.22,2.82,0.78,2.8-0.76c-0.11-6.06-1.18-12.03-1.5-18.08c-0.34-6.33,0.24-12.65,0.82-18.94c0.15-1.66-2.7-2.07-2.95-0.4
			c-0.91,6.17-1.85,12.34-2.74,18.52c-0.58,4.01-1.01,7.63,0.99,11.29c0.86,1.58,3.03,0.44,2.74-1.16
			c-1.29-7.05-2.43-14.36,1.08-20.97c-0.91-0.39-1.83-0.77-2.74-1.16c-2.48,6.66-4.52,13.2-2.82,20.3c0.38,1.6,3.17,1.3,2.95-0.4
			c-0.99-7.43-0.04-14.58,3.06-21.42c0.79-1.76-1.46-3.1-2.59-1.51c-1.39,1.96-2.29,4.08-2.19,6.53c0.13,3.17,2.25,5.66,2.42,8.83
			c0.09,1.62,2.55,2.12,2.95,0.4c0.25-1.06,0.49-2.12,0.74-3.18c-0.96-0.27-1.93-0.53-2.89-0.8c-0.28,1.95-0.66,3.76-1.17,5.66
			c-0.5,1.87,2.39,2.66,2.89,0.8c0.51-1.9,0.88-3.71,1.17-5.66c0.27-1.85-2.45-2.73-2.89-0.8c-0.25,1.06-0.49,2.12-0.74,3.18
			c0.98,0.13,1.96,0.27,2.95,0.4c-0.27-5.03-4.22-8.8-0.64-13.85c-0.86-0.5-1.73-1.01-2.59-1.51c-3.32,7.35-4.53,14.92-3.47,22.93
			c0.98-0.13,1.96-0.27,2.95-0.4c-1.56-6.5,0.56-12.65,2.82-18.7c0.59-1.6-1.95-2.64-2.74-1.16c-3.91,7.36-2.82,15.39-1.38,23.28
			c0.91-0.39,1.83-0.77,2.74-1.16c-2.38-4.36-0.5-10.25,0.18-14.83c0.63-4.22,1.25-8.45,1.88-12.67c-0.98-0.13-1.96-0.27-2.95-0.4
			c-0.58,6.29-1.15,12.62-0.82,18.94c0.32,6.05,1.38,12.02,1.5,18.08c0.93-0.25,1.86-0.5,2.8-0.76c-3.83-6.11-1.71-13.79-0.71-20.44
			c1.05-7.01,2.1-14.03,3.16-21.04C331.42,48.28,328.53,47.46,328.24,49.37L328.24,49.37z"/>
	</g>
</g>
<g>
	<g>
		<path class="st8" d="M326.6,84.91c1.51,8.89,11.81,7.72,18.1,5.11c8.23-3.41,9.74-10.47,9.88-18.7c-0.98,0.13-1.96,0.27-2.95,0.4
			c0.97,5.07,1.49,10.39-0.05,15.41c-1.68,5.51-6.04,9.44-10.62,12.64c-2.43,1.7-3.97,3.07-7.01,2.81c-3.48-0.3-4.47-2.67-5.63-5.77
			c-1.37-3.67-2.09-7.54-3.57-11.18c-0.71-1.77-3.62-0.99-2.89,0.8c2.21,5.47,2.74,12.02,6.47,16.78c3.66,4.67,6.92,3.88,11.52,0.9
			c5.42-3.51,10.85-7.52,13.61-13.56c2.83-6.22,2.31-13.1,1.07-19.64c-0.32-1.7-2.92-1.25-2.95,0.4c-0.1,5.43-0.33,11.41-5.42,14.66
			c-4.47,2.86-15.34,6-16.67-1.87C329.17,82.21,326.28,83.02,326.6,84.91L326.6,84.91z"/>
	</g>
</g>
<g>
	<g>
		<path class="st8" d="M329.77,98.31c-0.38,3.18,2.48,4.09,5.12,4.14c-0.25-0.93-0.5-1.86-0.76-2.8c-0.47,0.24-0.93,0.49-1.4,0.73
			c0.5,0.86,1.01,1.73,1.51,2.59c1.59-1.11,3.03-1.95,4.85-2.71c-0.62-0.62-1.23-1.23-1.85-1.85c-0.12,0.33-0.24,0.66-0.36,0.99
			c-0.38,1.05,0.81,2.21,1.85,1.85c0.32-0.11,0.63-0.22,0.95-0.33c-0.27-0.96-0.53-1.93-0.8-2.89c-1.65,0.62-2.81,1.32-4.1,2.52
			c-0.95,0.9-0.22,2.57,1.06,2.56c2.44-0.02,3.96-1.02,5.55-2.81c2.39-2.71,5.01-4.89,7.48-7.48c-0.79-0.61-1.57-1.21-2.36-1.82
			c-1.64,2.19-3.34,4.29-5.13,6.36c-1.27,1.47,0.65,3.38,2.12,2.12c4.55-3.91,7.47-8.88,8.66-14.77c-0.98-0.13-1.96-0.27-2.95-0.4
			c0.35,2.8-3.89,5.4-5.64,7.09c-2.07,2-4.06,4.09-6.06,6.16c-1.34,1.4,0.71,3.44,2.12,2.12c2.76-2.59,6.03-5.03,8.11-8.22
			c0.86-1.31-0.8-2.73-2.05-2.05c-3.55,1.91-6.98,3.98-10.34,6.21c0.61,0.79,1.21,1.57,1.82,2.36c1.28-1.38,3.45-2.85,3.31-4.92
			c-0.05-0.69-0.44-1.23-1.1-1.45c-3.14-1.03-6.09-0.88-9.23-2.3c-1.27-0.57-2.39,0.36-2.2,1.69c0.5,3.53,2.37,6.13,5.49,7.83
			c1.43,0.78,3.18-1.23,1.82-2.36c-1.69-1.4-3.23-2.88-4.7-4.51c-0.96-1.07-2.43-0.12-2.56,1.06c-0.36,3.15,1.63,7.83,5.48,5.17
			c2.85-1.97,3.25-7.2-0.91-7.34c-1.96-0.06-1.89,2.82,0,3c4.26,0.4,8.25,0.07,12.39-1c-0.27-0.96-0.53-1.93-0.8-2.89
			c-2.53,1.03-5.07,2.06-7.6,3.08c0.62,0.62,1.23,1.23,1.85,1.85c0.18-0.27,0.36-0.53,0.54-0.8c1.33-1.23-0.36-3.04-1.82-2.36
			c-0.29,0.14-1.08,0.82-1.31,0.85c-1,0.11-1.99-1.02-2.96-1.83c-0.79-0.67-2.27-0.53-2.51,0.66c-0.57,2.83-0.06,5.44,1.87,7.71
			c1.83,2.15,3.31,1.47,5.79,0.36c6.41-2.86,12.89-9.76,15.63-16.21c0.75-1.76-1.84-3.29-2.59-1.51c-1.5,3.54-4.3,6.73-6.92,9.5
			c-2.33,2.46-12.9,10.89-10.89,0.94c-0.84,0.22-1.67,0.44-2.51,0.66c1.12,0.94,2.88,3.09,4.53,3.19c1.49,0.09,2.15-1.16,3.37-1.73
			c-0.61-0.79-1.21-1.57-1.82-2.36c-0.83,0.76-0.97,1.05-1.31,2.12c-0.32,1.01,0.77,2.28,1.85,1.85c2.53-1.03,5.07-2.06,7.6-3.08
			c1.74-0.71,1.13-3.39-0.8-2.89c-3.86,0.99-7.62,1.27-11.59,0.89c0,1,0,2,0,3c-1.65,1.08-2.17,0.8-1.56-0.83
			c-0.85,0.35-1.71,0.71-2.56,1.06c1.47,1.63,3.01,3.11,4.7,4.51c0.61-0.79,1.21-1.57,1.82-2.36c-2.52-1.38-3.71-3.23-4.11-6.04
			c-0.73,0.56-1.47,1.13-2.2,1.69c3.28,1.49,6.64,1.52,9.95,2.6c-0.37-0.48-0.73-0.96-1.1-1.45c0.03,0.52-2.1,2.45-2.43,2.8
			c-1.11,1.2,0.34,3.34,1.82,2.36c3.36-2.23,6.79-4.3,10.34-6.21c-0.68-0.68-1.37-1.37-2.05-2.05c-1.89,2.9-5.13,5.26-7.64,7.61
			c0.71,0.71,1.41,1.41,2.12,2.12c3-3.12,6.03-6.17,9.22-9.1c2.03-1.86,3.71-3.39,3.35-6.28c-0.19-1.52-2.58-2.22-2.95-0.4
			c-1.09,5.4-3.71,9.85-7.89,13.44c0.71,0.71,1.41,1.41,2.12,2.12c1.95-2.26,3.81-4.57,5.59-6.96c1.03-1.38-1.2-3.03-2.36-1.82
			c-1.42,1.5-3.18,2.57-4.66,3.99c-1.87,1.81-3.23,5.4-6.25,5.43c0.35,0.85,0.71,1.71,1.06,2.56c0.92-0.58,1.85-1.17,2.77-1.75
			c1.78-0.67,1.04-3.54-0.8-2.89c-0.32,0.11-0.63,0.22-0.95,0.33c0.62,0.62,1.23,1.23,1.85,1.85c0.12-0.33,0.24-0.66,0.36-0.99
			c0.37-1-0.81-2.28-1.85-1.85c-2,0.83-3.79,1.77-5.57,3.01c-1.57,1.1-0.22,3.49,1.51,2.59c0.47-0.24,0.93-0.49,1.4-0.73
			c1.36-0.71,0.67-2.77-0.76-2.8c-0.71-0.38-1.42-0.76-2.12-1.14C333,96.4,330,96.42,329.77,98.31L329.77,98.31z"/>
	</g>
</g>
<g>
	<g>
		<path class="st8" d="M300.98,14.63c2.17,2.96,3.6,6.18,4.33,9.78c0.38,1.89,3.28,1.09,2.89-0.8c-0.77-3.81-2.33-7.36-4.64-10.5
			C302.44,11.58,299.84,13.07,300.98,14.63L300.98,14.63z"/>
	</g>
</g>
<g>
	<g>
		<path class="st0" d="M300.12,12.75c0.93,5.39,2.52,11.09,2.18,16.57c-0.12,1.93,2.88,1.92,3,0c0.36-5.74-1.32-11.74-2.29-17.37
			C302.68,10.06,299.79,10.86,300.12,12.75L300.12,12.75z"/>
	</g>
</g>
<g>
	<g>
		<path class="st0" d="M303,23.08c1.1,5.7-0.05,11.24-3.18,16.11c-1.05,1.63,1.55,3.14,2.59,1.51c3.57-5.56,4.72-11.94,3.48-18.42
			C305.53,20.39,302.64,21.19,303,23.08L303,23.08z"/>
	</g>
</g>
<g>
	<g>
		<path class="st0" d="M306.1,24.01c-0.08-4.17-1.23-8.12-3.43-11.66c-1.02-1.64-3.62-0.13-2.59,1.51
			c1.94,3.11,2.95,6.48,3.02,10.15C303.14,25.93,306.14,25.94,306.1,24.01L306.1,24.01z"/>
	</g>
</g>
<g>
	<g>
		<path class="st0" d="M333.62,45.61c-1.39,9.06-3.02,18.12-4.09,27.23c-0.59,5.01-2.36,14.53,4.55,15.85
			c1.89,0.36,2.7-2.53,0.8-2.89c-5.88-1.12-1.76-17.28-1.2-20.93c0.94-6.15,1.88-12.3,2.83-18.45
			C336.8,44.52,333.91,43.7,333.62,45.61L333.62,45.61z"/>
	</g>
</g>
<g>
	<g>
		<path class="st0" d="M325.38,38.85c-1.4-4.46-2.45-8.97-3.18-13.58c-0.28-1.77-2.82-1.18-2.95,0.4c-0.23,3.02,1.16,5.2,2.29,7.89
			c1.61,3.83,1.63,7.64,0.29,11.56c-0.63,1.83,2.27,2.62,2.89,0.8c1.01-2.95,1.38-5.92,0.91-9.02c-0.57-3.82-3.69-7.4-3.39-11.23
			c-0.98,0.13-1.96,0.27-2.95,0.4c0.72,4.62,1.78,9.13,3.18,13.58C323.06,41.48,325.96,40.7,325.38,38.85L325.38,38.85z"/>
	</g>
</g>
<g>
	<g>
		<path class="st0" d="M314.78,113c0.41,0.05,0.83,0.24,1.15,0.5c1.12,0.93,2.88,0.08,2.51-1.46c-0.27-1.11-0.8-2.05-1.53-2.91
			c-0.82-0.96-2.66-0.21-2.56,1.06c-0.01-0.17,0.27-0.35,0.29-0.29c-0.02-0.06-0.22-0.23-0.27-0.3c-0.12-0.17-0.21-0.37-0.29-0.56
			c-0.84,0.49-1.67,0.97-2.51,1.46c1.37,1.46,3.02,2.52,4.88,3.25c0.75,0.3,1.65-0.33,1.85-1.05c0.23-0.85-0.29-1.55-1.05-1.85
			c-1.37-0.54-2.55-1.41-3.56-2.48c-0.97-1.03-3.08,0.04-2.51,1.46c0.57,1.43,1.54,2.99,3.27,3.05c1.49,0.05,3.03-1.11,2.9-2.7
			c-0.85,0.35-1.71,0.71-2.56,1.06c0.4,0.47,0.62,0.99,0.76,1.59c0.84-0.49,1.67-0.97,2.51-1.46c-0.99-0.81-2-1.23-3.27-1.38
			c-0.81-0.09-1.5,0.76-1.5,1.5C313.28,112.39,313.97,112.91,314.78,113L314.78,113z"/>
	</g>
</g>
<g>
	<g>
		<path class="st0" d="M350.33,79.55c1.45-3.78,2.59-7.63,3.42-11.59c0.4-1.88-2.49-2.69-2.89-0.8c-0.83,3.96-1.97,7.81-3.42,11.59
			C346.75,80.55,349.64,81.33,350.33,79.55L350.33,79.55z"/>
	</g>
</g>
<g>
	<g>
		<path class="st0" d="M307.93,105.47c1.11,2.97,2.86,5.05,5.74,6.44c1.45,0.7,3.15-1.14,1.82-2.36
			c-8.38-7.68-10.43-19.49-17.02-28.46c-1.13-1.54-3.74-0.04-2.59,1.51c6.75,9.19,8.88,21.18,17.49,29.07
			c0.61-0.79,1.21-1.57,1.82-2.36c-2.14-1.04-3.47-2.28-4.36-4.65C310.15,102.88,307.25,103.66,307.93,105.47L307.93,105.47z"/>
	</g>
</g>
</svg>
